<?xml version="1.0" encoding="UTF-8"?>
<svg width="18in" height="13in" clip-rule="evenodd" fill-rule="evenodd" image-rendering="optimizeQuality" shape-rendering="geometricPrecision" text-rendering="geometricPrecision" version="1.1" viewBox="0 0 18000 13000" xmlns="http://www.w3.org/2000/svg">
 <defs>
  <style type="text/css">.fil0 {fill:black}</style>
 </defs>
 <path class="fil0" d="m-5231 9574c-11-20-11 33-13-49 0-11 5-47 6-62 12 68 47 38 7 111zm8403-906l11-1c138 4 153-38 299-16 128 19 122 70 232 124 111-13 253-19 367-26 122-7 245 15 366 0 232-28 815-45 1087-45 104 0 233-42 332-37 169 8 230-12 370-17 83-3 229 20 310 9 22-117 5-90 92-141 168-100 123-307 321-363 111-32 271 29 365 82 77 45 65 65 123 112 30 25 36 13 70 48 48 52-13 21 52 45l16-63 29 68c116-3 247 22 352 9 212-27 441-19 655-45 330-40 685-19 1009-64 216-29 982 6 1231-21 207-22 786-57 963-39 105 10 535-14 631-40 86-22 223 11 327 6 23-100 33-100 141-141 135-52 213-194 370-185 50 3 76 22 116 22 82 0 16-28 122-3l-21 14c38 20 33 8 87 4 16 21 25 35 41 54l139 159c100-38 121-23 251-29 259-11 253-38 352 50 3 2 7 5 9 7 39 32 22 13 61 53 43 45 54 57 85 132 120 290 150 233 230 659 14 74 3 145 8 181 6 40 17-4 26 83 21 218-27 494-60 709-21 139-106 396-162 504l-83 135c-59 75-94 151-319 115-67-11-159-6-223-9 21-103 297-67 384-67l76-118c-14 2-53 8-63 8-99-7-21 1-53-22 4-3 8-7 11-8l42-12c4-1 58-1 70-2-38-23-16-10-56-20l-72-29c48 2 75-8 110-5 53 4 38 6 66 28l15-54-249 6 59 51-178 30c-85 2-20 3-52-18 26-37-25-5 25-31 38-19 90-5 135-5l-72-13c-23 0-57 3-81 4-21 57-169 354-221 394-24 19-100 48-140 61-162 54-216 28-336-33-52-27-99-22-151-45-16-7-56-34-62-42l-27-72c-59-4-55-1-109 7-39 7-46 4-91 4-78 1-140 6-218 4-154-3-269 21-417 20l-377 10c-110 0-267 26-381 17l-36-47c2-2-5-6-7-9-37 1-81 3-117 3l-88-22c154-15 196-21 321 17l68-79 104 16c-29 3-48 8-92 11 4 2 9 5 12 6 2 2 9 5 12 7l-42 39c45 17 132-4 192 6l-34-27c-2-2-14-7-11-8 3-2-7-6-11-4l142-22-53-29c72-9 180-33 227 17l-147 16c337-33 122 50 300 30l-30-83 286 44c59-8 88-9 146-9 53-1 261-6 292-22l-321-36c82 17 27-10 47 42l-101 1-34-50c-88 21-234 38-315 2 38-29 108-18 151-36-70 2-168 15-218-17 22-20 3-17 47-22 49-7 126 9 174-12-67-40-176 33-259-16 36-54 94-33 158-44-56 9-104-11-177 15l-20-32c-29 48-8 40 20 71l-205 15c82 30 94-23 193 25l-84 21c-40 4-28-3-57 13 45 26 22 1 58 8 59 12 24-2 60 33-86-9-267 35-329-7 16-12 2-11 36-19 3 0 42-2 50-3 34-2 47-2 79-12l-85-12c18-53 15-27 5-57l-150 10-27-43c3-2-4-7-7-10-74 10-98 39-167-1 42-37 52-2 63-68-61 44-108 29-199 35l3 51c-110 4-214 4-316 10-52 3-114 14-160-1-89-28-15-43-113-57l16 60c-3 2-9 4-12 7l-14 17c-5 12 1 43 3 59l101-9c2-5 23-44 44-63 75 8 110 6 180 9-54 48-96 15-163 49l15 7c47 4 105-12 151 9-25 19 36 8-48 21-116 17-233 8-355 12l25-58-137 8c14-46-6-8 24-37 5-5 13-7 29-20-28-3-34-15-68 12l-36 36c-2-3-4-8-5-9 0-1-3-7-4-9l-116 46c52 0 102-5 138 16-18 13 28 9-46 18-54 7-92-9-134 16 81 38 30-29 120 13 17 59 18-1-20 72l-19-33c-87-24-105-8-201 8l84 23c-63 39-37-5-97 14l-20-27c-2-1-10-8-7-9s-5-6-7-11l-135 20c4 0 10 2 13 2l23 12c-43 32-8 16-117 20-51 2-71 5-122 0l67-37-69-45 476-10c8-73-4-23 20-70-70-17-96-4-161-5 29-35 62-40 112-45-105-13-461 2-568 19 51 17 132-9 175 23-55 34-145 19-215 23-58 3-163 4-211 34 175-32 145-1 167 18-42 10-52 13-106 7-64-7-47-11-72 24l308-5c-72 81-93 5-187 47l175 36c45 30 86-2 140-5 65-3 119 6 190-1-20 45-4 27-38 50 159-2 23-44 173-38l-49 23c39 0 40 5 70 9 67 9 150-9 225-12 29-36 19-35 83-52l13 32c15 49-14-17 4 18 45-1 47-14 67-44l225-4-176 41c60-2 142-23 200-3 50 18 1-10 34 33-24 20-266 18-370 32l-269 3c-138-4-319 0-436 29-83 21-67-29-166 2-105 33-212 6-327 9l-564 35-705-33c-137 84-290 37-483 54-149 12-207 183-451 194-13 1-53-2-55-2-32 1 16-1-36 11-145 32-402-208-430-342-73-12-92-35-153-22-138 31-236 16-378 29-75 6-117-8-184-6-64 2-106 23-184 20-34-2-53-9-77-7-38 3-37 9-88 9-90-2-204-16-288 13-82 28-286 4-427 25l-154 12c-51 4-125-8-185-3-158 13-315 28-469 8-42-5-60-2-98-3-76 0-30 10-67-18 21-47-19-33 118-39l985-36c159-5 342-27 517-33 133-4 424 22 528-25-86-20-540 17-695 14-220-4-472 33-692 38l66-54-75 6c0 1-16 24-17 26l-112 8 77-24c-62-34-121 16-197-16l62-8c115-9 252-36 361-18-35 28 0 4-42 20-20 8-44 9-55 31l227-13c-3-2-9-5-10-7l-24-37h133c-46 33-23 4-57 45 162 10 383-25 557-19 164 6 603-58 719-37 89 16 116-23 213-9 65 9 130-14 167 14-48 23-413 25-495 24 101 24 802 18 880-27l-150 5c-3-4-7-9-8-10-1-3-7-9-8-11l-254-15c15-14-19-17 54-33 77-17 126 19 197-22l-360 14 50 41-573 21c26-24 63-26 110-47l-194 27c-63 69 32 6-33 24l-76 1 69-36c6-1 8-3 12-5-93 1-250-3-321 21 91 31 142-29 219 13-44 22-113 15-170 18l-517 19c-1-3-4-7-4-8l-13-31c-104 0-198 6-300 8l-263 4c2-1-8-5-13-7 89-51 370 6 471-51l-502 44c54 56-24-46 14 24-164 1-302 26-459 15l-51-14c32-19-1-10 51-18 103-17 279 18 361-29-140 1-300 29-424 6 39-30 28-20 96-35l-68-25c12-58 40-168 18-228-26 43-24 136-37 189-18 73-25 125-79 151 56 217-199 360-231 404-317 27-311-6-558-314l19-83c-95-21-57 12-131 25l-502 11c-82-21-484 22-593 25-212 4-229 27-306 32-60 4-110-13-185-5-63 6-103 10-166 15-47 3-87 9-136 15l-131 7c-46-2 18-20-59-10-41 4-89 24-132 13-75-19-18 7-52-39l90-38c51-10 43-12 106-11-13-27-32-22 3-46 56-38 177-11 244-12-51-18-230-8-303-6-3 5-4 12-5 15 0 1-1 7-1 8-1 2-2 8-2 9 0 2-6 9-3 10l-96 13c5-3 10-8 14-10l66-37c-79 3-46 16-70-26-69 81-80 231-183 280-112 54-295-2-342-93-66-127-122-233-152-381-132 49-308 33-441 44l-118 18c-42 2-90 5-124 12-77 17-133-16-227 0-73 13-18 27-112 15l-79 1c-5 1-9 2-14 2l-251 25c-57 4-154-15-216-8-103 11-125 30-212-10-17 25-26-44-10 67-317-13-255 106-362-331-68 45-87 23-147 57-82-33 8-35-68-22l-48 167c-111-1-68 12-150 24-109 18-120-76-218-111-62-23-69-29-112-53-16-162-117-469-62-614-71 1-152 53-205 98 7 58 107 269 134 345 54 151 99 263-99 278-37 73-17 83-62 139-125 155-34 100-79 294 15-14 13-11 29-28l98-135c27-56 53-130 98-173l28 58c32-28 24-21 64-46 57-35 13-18 63-54 47-34 100-61 152-42-60 204-167 162-232 283l-50 16c-54 53-49 28-106 108-125 176-69 60-108 225-11 47-20 54-41 93-51 89-46 83-153 84-175 2-194-64-324-45-71 10-61 0-96 37 53 41 86 48 138 76 45 25 77 52 121 81 67 44 199 65 193 159-7 104-112 5-172-34 43 61 144 95 164 152-88 138-194-93-299-139 19 57 139 179 144 206 13 70-151 131-213 137-26-43-30-54-86-66 45 50 55 24 56 96-78 45-321 134-382 16l-160-155c-137-118-251-277-366-418-41-50-60-70-96-122-53-76-131-213-196-256 34 125 283 431 364 523l336 332c70 67 96 30 107 114-49 22-32 10-99-2-56-9-23 8-88 6-86-3-273-83-351-120-38-18-51-32-73-43-34-19-45-10-91-26-39-14-124-65-151-83-74-52-65-77-109-126l-263-198c-24-103-37-333-14-440l158-140c77-54 118-50 175-125 46-63 54-40 85-103-34-66-65-71-99-129 12 64 11 4 25 78-105-10-161-152-212-236-66-106-54-202-56-334-38-101-89 20-134-580-18-242-8-572 239-648 35-11 52-8 82-19 50-17-2-8 57-25l287-83c145-52 628-92 653-85 69 21-14 23 234 55 61 9 131 56 185 97 83 62 129 59 174 111 86 97 204 186 324 226 242 81 336-17 688 124-11 102-27 45-121 103-149 91-339 107-510 142 12 53 22 36 36 93 47 190-12 174-39 308 86-10 87-51 137-82 39-25 104-42 134-67 107-90 88-105 242-160 99-36 166-128 287-132 149-5 209-62 305 61l46-42c84-13 211-33 279 2 123 62 182 271 362 216 103-31 673-22 828-39 177-19 431 3 577-24 18-132-8-147 50-269 17-37 34-66 61-89 36-30 56-19 62-67 228-38 244-41 368 94 93-24 462-49 581-49 373 0 1447-51 1783-77 21-83 43-169 80-237 95-177 77-98 134-178zm-8399 2538c42 30 24-13 26 49-50-55-3-2-26-49zm40-1462c21 31 23 8 2 40l-2-40zm23-290c29 57 15-32 11 25-6 77 15-1-11 26-2-4-3-8-7-10l7-41zm17 1489l-23 106-30-56c16-17 41-36 53-50zm28-1015c12 17 36-8-34 37 38-95 27-32 34-37zm43 335c40 26 23-13 36 49-19-10-14-16-36-49zm-6-1291c-2 3-1 9-6 11-24 8-1 5-12 23s8 60-94 22c120-43 43-1 94-108 24 9 91 36 114 52-12 8 33 26-96 0zm-10-110c96 2 76 10 114 49-129-14-26-30-114-49zm112 1019c14 0 18 20 1 16-16-4-10-16-1-16zm36 1714c-101-87-143-123-194-245 27 45 60 72 96 109l98 136zc35 32 17 10 39 49l-39-49zm-9-1228c13-1 27-5 43-4l36 7c3 0 7 3 10 5-69 34-40 11-89-8zm36-722c-20 34-47 38-87 38l87-38zm119 830c-39 18-61 27-110 0 3-2 11-5 9-6-2 0 7-4 10-4 0 0 26-14 91 10zm-161 46c46 25 73 17 94 70l-94-70zm1-308c73 5 66 18 122 36-69 23-33-6-16 68-58 10-73-8-105-29 58-23 17 29 61-30l-62-45zm50-249l46 23-28 25-18-48zm74-1108l67 8-17 79-142 21c-10-90-14-30 12-75l22-30c31-29-6-14 38-14-45 29-37 3-21 68 140 20 43-53 41-57zm43 2009l33 40-33-40zm28-1829c-95 3-282 86-333 76 97-40 69-19 131-35l141-47c80-22 34-30 61 6zm101 889c-18 38-31 66-74 72-2-64 19-64 74-72zm-16 1055l-7 23-14-21 21-2zm37-235l-73-96c30 26 46 54 73 96zm49 1085c-46-17-157-119-176-144-55-69-114-114-159-174-60-77-232-300-244-395l128 177c108 157 268 365 409 491l42 45zm-49-1085c13 43-10 9 29 14l-7 32-22-46zm29-425c-20-36-13-18-9-75 13 45 25 43 9 75zm0 439l20-28c4 46 17 16-20 28zm20 1071l54 37-54-37zm63-988c-23-20-26-5-24-41 24 22 10 8 24 41zm4-102c-20-16-19 25-27-41 10 17 11 18 27 41zm44-1217c-44 25-35 14-62 47l-54-24c47-15 44-18 67-40l49 17zm-44 1217l51 49-51-49zm-4 102c28 22 41 39 69 64-41-24-43-24-69-64zm62-30c32 8 19-7 38 14 20 22 8 11 26 39l-64-53zm8-2119c30 33 24-8 23 31-1 38 2 8-14 31l-9-62zm67 2097l-85-80 85 80zm49 887c-125-84-223-249-319-365l-299-394c-22 25-13 6-33 47l-10-39c58-22 32 18 50-41l611 792zm-117-771c55 44 93 70 134 114-48-23-29-19-62-50-39-36-40-23-72-64zm126-814c32 76-7 146 4 271l64 40c2 68 18 109-45 124s-110-16-134-52l-125-218c79-89-44-226 174-248l45 62c-62-26-41-38-130-36-36 78-56 98-29 193 27-27-7 14 26-27 8-9 9-12 14-19 25 69 47 119 90 143 5-130-68-137-76-227l109 22c1-1 12-27 13-28zm-688 973l361 479c141 142 89 156 317 318 41 29 77 61 113 95-180-18-271-188-354-271l-190-226c-45-53-48-75-93-125-69-76-104-163-154-270zm344-85c-30-91-82-85-104-210 70 41 104 90 170 157 93 92 242 176 279 205 107 87 227 134 307 193-140 287-471-125-551-185 23-18 19-9 28-41-76-63-46-80-129-119zm488-1275c-44 18-6 20-56 0 20-13 26-18 56 0zm-21 522c5 1 28 37-3 21-16-8-30-26 3-21zm-165 667c32 19 168 143 192 173-72-44-155-100-192-173zm-16-104c58 30 201 161 230 201-67-35-195-145-230-201zm198 103l35 30-35-30zm-149 784c51 27 169 136 201 179-72-33-176-102-201-179zm28-2942l131-10c-68 34-10-10-45 53-47 82-41 25-34 143 110-54 57-53 99-116l32 12c-4 6-4 9-9 11-5 1-6 6-8 7-47 57-30 37-35 87 47 11 37-13 90 15-75 58-56 15-273-23-117-21-193-1-320-4 0 0 17-160-84-100 13-56 86 15 199 18-59-104-33 3-74-74 44-24 2 0 81 15l48-46 8 54c67 23 24-4 74 32-26 39-27 25-30 89 69-12 90-9 52-73 39 1 56-8 72 22 42 81-13-27-23 63 45-20 88-51 107-106-5-4-5-9-13-10l-107-40c25-12 16 4 62-19zm-166 788c71-40 70 1 84-68-22-12 28-21-69-4l-43 8c-62 12-62 5-88 41l-90-26c3 77-4 41 33 105 1 2 3 7 4 10l-91 13c49-75 40 23 51-99-91 8-35 8-84 25-45 15-36-6-82 23l-5-164c-82 11-70-18-66 75 5 137 0 126-87 135-2-4 1-11-6-13-39-12 27-18-48-44l-28 131-82-15-8-82 54-30c-8 44-40 36-15 78 53-31 26-24 40-112 104 29 21-1 102-13-33 108-4 45 8 67 76-21 50-9 53-90 1-24 4-41 2-65-3-67-6-51-22-73-56 39-40 19-26 91-99 18-41 8-126 70l25-107c-77 9-33 6-88 34l-5-110c-3-2-9-7-12-9-76-56 16 19-26-15l62-34-19-34c-17-33-8 10-6-16 4-2 14-6 11-7-2 0 9-4 12-6l423-129-2-11c4-1 18-2 16-2l139-18c212-38 295-2 432 61 16 111 38 37 55 290l-31-127c-24-48-9-18-36-37l-25-13c-29 28-16-40-27 46-7 52 12 112-14 217-29-32-12-19-31-48-39 33-25 34-50 84-96-9-84 5-168 17zm362 1587c30 19 28 18 35 37l-35-37zm83-2067l-3 67 3-67zm-70 2837c73 21 34 55 123 86-18-6-46-19-67-31-46-25-41-20-56-55zm-39-872c59 39 134 83 166 130-69-38-115-84-166-130zm73-12c57 28 53 38 92 72-77-33-47-12-92-72zm109-1991c14 23 16-3 6 40-4 13-20 44-23 49-12-24 4-61 17-89zm-878 1917c47 26 221 287 271 347 26 32 42 35 70 64 39 42 72 85 115 136 98 116 264 273 388 362 64 47 102 52 137 117-41-6-58-12-87-33l-275-226c-31-27-42-43-66-66-129-124-521-542-553-701zm853-2092c15 76-2 13 19 68l-61 19c-4-3-5-6-10-6-8-1-17-9-20-10-7-3-35-13-40-14l45-31c74-24 22 27 58-66 26 7 55 16 82 32 34 19 27 25 64 39-102 18-68-13-137-31zm108 345c17 33 6 52-16 95l-44-37c20 31-3 8 47 20-2-91-1-59 13-78zm48-51c-31-26-27-1-14-34 17 12 6-4 14 34zm32 511c-24 31-6 26-54 30l54-30zm-47-848c17 7 13-2 35 14 37 25 19 15 37 39-88-15-39 8-72-53zm15 337c57 22 36 4 66 47l-49 29c32 78 29 20 53 87-44-17-43-4-82-35 29-60 40-62 12-128zm26 2572c80 24 184 90 225 139-49 30-6 19-76 21-30-26-125-120-149-160zm40-2525l116 66c4 54-18-23-88-8l-28-58zm28-185c5 4 17 8 14 9-43 24 9-9 56 41-31 58 52-50-15 13-28 26-9-6-31 37l53 64c-33-13-74-44-101-66-36-28-62-52-101-65l-34 59c-14-25 22-79 39-104l45 52 45-42c64-60 23 22 52-67 37 35 16 33 69 55l37 12c-24-3-57-15-60-15-4-1-8-3-13-4-63-2-33-1-55 21zm173-61c-56 1-38 24-36-27l36 27zm-60 261c36-59 13-28 77 2l23 8c2 1 6 3 10 4-15 11-30 17-46 37-52 62 20 24-51 54-9-32 8-37 37-64-4-4-4-9-11-11l-39-30zm1-109c45 3 11-2 47 9 45 14 26 7 56 22-44 47-28 6-103-31zm268 92c-20 48-10 47-65 39 45-63 8-14 65-39zm26 1622c15 24 9 14 15 43l-92 1c17-8 22-10 39-21l38-23zm125-403l-48 24c7-38-24-14 18-31 33-13 29 5 30 7zm-989 505c-74-44-171-151-215-212l248 141c-14-84-144-184-78-217 40-21 4 35 80-15-11-71-26-26-49-67-13-61-32-186-23-233 102 18 46 51 67 113 26 47 152 129 197 103-24-48-15-29-85-41 83-70 76 39 126-42l-52-18s-30 11-66-15l144-6-14-73c-86-5-57 30-126-9 45-26 33 0 88-46-24-20 9-18-79-32l37-57-70-5c4-9 13-12 11-13-3-1 8-6 11-7 14-5 21-7 37-12-4-4-5-9-13-11-8-1-10-8-13-10-55-36-23 0-39-37l-8-22c-81 8-57 9-117 39-66-8-103-17-128-81 91 43 61 45 189 55 52-53 88-58 112-145-218 22-52 75-271 45 174 10 155-51 254-100 50-25 31-2 78-41-31-28 8-15-62-26 45-20 114-41 153-67 45-29 69-60 137-79l-13-38c-2-22 71-71 104-88 27-14 67-27 100-35 62-15 48-2 97 16 65-17 166-59 213-36-61 39-136 18-195 73 60-8 209-19 261-38l3 104c-50-31-70-32-119 12l34 10c72 0 13-33 68 6-64 47-105-16-127 51l77 1c37 171 6 106 89 330 30 79 103 267 97 342-124 3-116-29-188-53-144-49-113 118-117 125-230 188-144 78-356 30-30 47-13 73 21 118 56 72 47 55 131 70-14 98-60 107 21 196 150 163 108 36 186 116 41 42 27 121 11 184-76 62-114 23-211-2-149-39-82 1-243-74l-226-92c-64-26-57-117-197-123l18 38zm1775-958c-51-352-142-145-203-333l84-41c27 55 99 106 139 163 39 58 61 166 48 256-29-34-26-14-68-45zm209-282l-87-2c-60-74-63-36-100-137 81 1 157 16 187 139zc73 68 77 217 111 319-20 11-36 15-57 28-49-134-71-196-54-347zm141 422l-20-52 20 52zm84-447c-85 20-58 14-128-42-51-41-75-49-84-119 66-4 66-2 104 33 115 104 138 108 182 267l-15 19c-11 17-5 6-20 31 24 42 21 29 41 66-19-5-55 17-80-87-17-68-9-103 0-168zm69 462c25 24 19 24 6 46l-6-46zm34 183c26 30 26 9 7 39l-7-39zm66-666c101 176 128 763 9 929-20-42 17-107 32-203 69-447-67-631-41-726zm138 878l-23-52c10 27 8 28 23 52zm-295-968c15-36-1-36 65-46 156-24 141-1 180 32 52 43 41 13 68 64-107-10-47-71-150-87-120-18-59 82-163 37zm566 951c2 3 11 8 7 9-3 1 4 8 4 9-3 36 5 5-11 25-22-31-19-8 0-43zm852-14c21 0 11 18-3 15-12-2-44-15 3-15zm494-379l55-8c25 67-2 12 29 59-42-35 6-59-84-51zm235-437c-50 35-146 29-209 24l209-24zm71 360c20 1 21 25-1 20-16-4-47-22 1-20zm10-75c-64 5-99-8-140 24 15 13-25 23 61 17 68-5 6-29 69-1-19 11 6 11-49 15-23 2-59 0-87 1 9 9 8 9 34 24 30 18 12-3 27 18l-142 6c65-24 29 8 46-42l-150 5 75 40c-132-4-77-29-181-42l37-15c36-5 3 17 53-9-58-29-382-6-483-1 37 78 34 20 166 26l-197 24v-43l-93-21c101-5 202-16 292-13l289-22c-73-31-41-11-107-4-45 5-80-11-109-37 120 16 88 5 108-11l-147 7c-41 80-214 63-283 61-46-2-88-3-134-2l-124 21c16 10 8 14 40 19 17 3 34 1 51 2 31 0 54 0 81 4-141 0-821 6-896 74l-2 22c16 44-16-3 19 28l-42 12 7-106 517-30c66-9 134-7 201-10-108-71-348 37-445-14 38-17 133-11 169-34-50-29-280-13-327 17l104 31-218 9c21-22-1-9 33-21l-36-15c-15-79-43-166-42-245 2 55 9 40 17 95 159-5 116-23 325-17l736-41c86 4 41 3 63 20-100-8-222-6-301 6-85 12-184-12-265 11-32 9-23 11-39 22l415-9c-40 15-47 23-54 50l404-33c-77-21-172-2-241 2-30 2-76-1-107-3l89-29c44-3 91-4 135-5 24-33 30-39 83-44l33 44c81-18 228 10 300-31-66-37-195 23-271-17 253 5 191-16 322-17 27 0 54 1 82-1 85-7 178-53 200 54-22-2-44-6-67-4-88 10-25 2-49 18 33 17 55 5 88 7l38 30c3 26 2 12-1 39-59 9-61-5-104 22l37 23c-86 6-31-21-67 33 149-7 113-43 154 6zm174-560l-41 25c7-33-27-16 41-25zm27 1308c5 2 24 37 6 19-3-3-32-33-6-19zm69-1245c-51 26-61 5-112 39 17-56-37-20 40-44 35-10 51-3 72 5zm45 60c-63 11-83 35-139 41 8-32-28-36 48-47 24-4 65 4 91 6zm-45 1036c-70 6-24 21-41-25 28 12 22 6 41 25zm-12-120c44 77 4 39 0 44l-8-18c3-53-2-7 8-26zm-59 224l19-48c56 41 57 9 102 36-76 41-17-30-121 12zm159-296s-45 36-99 16c0 0-16-62 99-16zm41-291l-85 34c-65 18-38 26-52-10 46-30 79-23 137-24zm19-242c-22 16-43 23-75 32-69 19-61 26-83-17l158-15zm-13 442c-30 8-32 13-66 13-114-1-40-3-61-22 53-21 78-10 127 9zm-8-284c-48-1-27 8-59 21-71 28-48 24-59-14l118-7zm37 182l-150 21c25-58 95-34 150-21zm-98-580c-3 6-4 10-9 10l-92 45c59 43 51 11 106 33-104 49-62-17-105 70 60-1 76-13 116 13l-111 47-42-221 137 3zm111 322c-34 21-61 17-105 23-73 9-73 30-83-38 81 37 115-22 188 15zm-74 855c5 1 23 39 0 22-13-10-22-29 0-22zm151-570c17-6 0 19-5 19-27 1-35-7 5-19zm130 445l-42 10c0-7-4-36 42-10zm63-514l-127 15c13 42-2 26 37 47-45 23-20-7-39 71l-4 8c-11 52 13 29-23 95-1-51-17-315 20-347 19-17 252-26 294-11-100 12-221 1-305 33 54 49 76 22 192 23-11 5 5 6-39 14l-86 9c-82 23-21 4-49 27 3 2 13 6 11 7l59 13c51 0 43-22 59-4zm-224 588l7-64c13 51 6 23 25 45l-32 19zm242-545c-11 59 22 98-57 72 34-28 12-42 23-59 15-24 20-9 34-13zm700-195l-510 35c54-25 468-51 510-35zm-58 722c18 8-17-40 50 42l299-7c-110 26-963 60-1044 55 108-7 206-25 327-22 24-32 19 1 17-46 40 1 78-2 117-1 56 0 55 8 112-11 2 17-27-31 1 7 16 22 0 5 4 1l-212 5c37 36-3 39 145 33 50-2 100-3 150-4l34-52zm85-643c-52-33-25-23-128-6-196 31-84-15-126 44l24 8c14 191-7 142 74 224-5 107-29 174-117 200-98 29-177 4-205-72l40-34c104 32 107 58 202-6 5-89-10-116-69-146l5-124-68-37c-71 33-47 51-135 64-33-99 7-19-3-121l566-21c-7 98 26 147-28 216-64-88 18-120-65-154 28-11 34-13 33-35zm194-35c65-9 73-19 116 22-1 2-213 367-265 357l201-340c-30-62 12-9-52-39zm-176 691c141-43-27-54 97-61-6 24-21-4 0 37l167-4c3-7 15-21 17-23l18-20c17 47-30 27 63 43l-25 37c-16 17 3 14-40 15 0-1 1-1 1-2-2 0 1-3 1-4 1-2 8-28 11-38l-310 20zm247-468c39-50 109-52 126 4 14 47-46 103-65 129 4 3 15 8 12 9l40 15c38 17 13-10 32 26l-158 24c-2-100 49-94 82-174l-48-25c-2-1-8-3-11-4-2-1-7-2-10-4zm339-292l-140-7c72-3 67-12 140 7zm256-69l-714 38c-78 11-27 5-50 23 84 54 151-15 216 16-55 27-207 21-282 21l36-61c-89-1-152 17-236 21-85 4-167-2-251 4-131 8-328 32-469 31l21-12c55-20 55-5 100-42l-135-3c76-44 459-46 570-37-71 24-298 17-372 29l-49 18c47 28 300 6 385 3l300-21c53-2 67 7 117 4 258-21 548-46 813-32zm-83 48c-32 19-69 32-117 11l117-11zm-66 545l-62 9c19-62 39-75 62-9zm249-490c3 63-8 6 19 69l-166 3 1 85c93 58 94-26 113 81l-103 9c-30 97 23 111-59 127-32-83-1-278-8-368l203-6zm62-785c-37 32-44 19-102 13l102-13zm29 1405l82-10c-19 65-26 33 44 58l-94 13c-12-32-18-10 17-41l-49-20zm281-637l34 69-102 31c-35 118 45 264-32 305-49-78-18-216-21-314l-106-13c36-60 28-37 110-43 81-6 41-13 117-35zm195 713c-51 44-158 23-244 21-101-2-183 14-283 15-120 1-495 19-542 3l124-8c36-12 15-7 36-24l-169-2c10-1 124-22 154-25-16-13-9-12-39-22-15-6-30-6-47-11l123 27c2 2 6 7 9 10l276-47c2-2 5-7 8-10l12 22c1 26-4 29-7 36-77 12-221-8-287 22 26 28-13 16 33 25l843-32zm-72-1508l-219 30 219-30zm59 101c42 59 66 86 29 145l61 9c-10 50 3 102 16 152 19 74 36 87 24 172-131-15-1272 45-1309 73 60 36 966-52 1026-19-110 36-643 22-746 33-250 27-484 33-755 36 38-14 367-34 439-35-27-40-127-21-235-18-115 3-224 6-334 15l-485 25c-113 2-104 26-150-5l-8-71c93 0 200-12 292-15 58-2 221-3 267-28-63-22-463 12-567 18-2-90-45-140-61-254h173c-32-45 25-12-31-29-10-3-54-1-66 0-15 1-31 5-46 7-6 1-22 3-26 4l-23 1c37-49 147-45 213-48l-233-17c129-60 815-52 1033-69 178-13 337-20 517-22 56-1 85-17 116-18 80-3 281 17 370-27-11-6-4-10-35-15l-1921 92c-91-14-17 3-55-25 181 20 2448-127 2488-104l-345 30c-169-3-94 4-119 22 86 43 370-20 486-15zm-52 1317l127-9c-1 35-14 46-32 65l-3-19c-33-28 7-11-54-27-32-9 1 13-38-10zm197-324c-5 75 12 36-23 54l23-54zm-27-245c-39 7-75-2-89-5l127-16-3 80c0-5 1-11-5-13l-30-46zm-194-224c54-9 168-29 215-9l14 132-129-16c33-21-2-5 45-13 70-13-35 14 30-4 39-11 11 0 33-18-52-25-114 17-174-14 47-17 100-9 127-13l51-21c-54-32-129-8-212-24zm376-862c-87 86-89 18-90 18l90-18zm37 1982c-58 6-59-3-73 29l28-73c28 42 3 19 45 44zm-94-1908l182-3c-73 30-89-9-148 47 20 14-3 14 39 21l-73-65zm77 1829l2-45c34 51 12 27-2 45zm15-841c6 0 22 18 0 12-11-3-26-14 0-12zm165-858c-69 53-110 13-180 43 5-48-15-41 62-45 31-2 84 2 118 2zm63 1211c-86 33-112-28-132 72 47 32 81 19 151 21l-121 17c-52 16-29 14-47 29 15 42 11 28 51 50-3 2-4 5-9 6l-53 44c23 58-13 10 41 50-57 45-51-15-75 67 40 27 54 27 109 23l-156 24c64-102 21-63 59-186 30-94 37-134 40-238l142 21zm-227-1079l-14-60c94 20 91-12 171 4-48 44 43 4-31 26-41 11 2-5-46-2-59 3-38 6-80 32zm289 366l-191 41c-29-41-31-57-30-125 62-2 155-25 204 0-105 50-130-14-180 67 15 9 9 15 41 18 36 3 92-26 156-1zm-38 1177c3 0 20 19-2 14-18-3-34-13 2-14zm-185-1308l-26-91c-10-49-18-64-24-116l170-4c-24 22 4 14-38 25l-80 21c-32 19-7 4-28 29 95 53 111-26 209 16-71 50-137-12-189 67l190 18c78 12 26-20 47 38-92-66-152 13-231-3zm267 324c-92 0-172 0-218 56l139 10c-3 11-4 16-9 16l-113 42c19 19-13 17 88 31 41 6 63 8 105 10-85 7-171 7-199 59l95 26c2 1 6 5 9 8-76 38-71-13-109 50 46 34 126 23 186 26l-155 21c-5 1-10 5-14 7-4 1-9 5-13 8-5 92 93 33 198 47-29 1-55 17-106 19-78 4-74-18-115 38l-3-571c77-26 127-12 207-3-54-1-47 5-96 15-83 17-83-14-99 59 4 2 15 5 12 6l141 6c65 5 103-8 113 48l-44-34zm76-47c100 24 158 2 250 13l-228 20c7 40 7 40 7 55l29 99c3 3 22 14 26 17l-36 25c-2 1-6 5-10 8 5 96 19 275-34 330 30-108 21-436-4-567zm95-885l-35 10 35-10zm181 1756l-36 6c8-19 20-14 27-12 2 0 8 3 9 6zm62-71l-39 10 39-10zm229 49c-73 32-196 33-245 9l245-9zm8-630c-11 58 9 22-44 41 34-74-6-6 44-41zm80-35c-91 0-78 30-165-10 105-2 99-25 165 10zm-38 38l107-5c-23 111-23 187 3 302h161l2 80-249 6-24-383zm192-159l-200 5c18-10 83-23 102-25l98 20zm-10 106l-72 13c22-15 44-33 72-13zm71-67c-44 24-232 31-254 17 36-24 241-27 254-17zm127-7l53-1-53 1zm106 783l-103 20 103-20zm-623-842c48 27 42 18 110 21-66 23-465 39-533 18 87-1 149 4 227-6 77-9 99 27 184-33-61-39-89-15-170-22 64-23 820-48 908-35-107-8-223 15-348 18l-335 15c-30 9-30 16-43 24zm973-198c-51 29-265 35-309 13 57-18 248-29 309-13zm-295 315c76-2 230-55 279 120 41 145 26 346-210 312-108-15-124-192-118-283 5-68 34-87 49-149zm337 759c-56 44-157 12-280 23l280-23zm111-1087c-46 24-64 30-108 9l108-9zm-122-754c34-43-86-30 164-13-27 25-27 11-164 13zm255 871c-42 22-21 26-59 8l59-8zm35-889c27-10-4 13-4 13-7 1-25-2 4-13zm95 1741l-241 25c42-64 16-13 99-12 61 0 57-18 142-13zm-48-732l-39 13 39-13zm49 681c-73 30-20 18-100-1 97-13 32-17 100 1zm237-875c-54 15-215 35-272 15l272-15zm-15 59c-59 35-90 13-166 15-84 3-98 33-150-3l316-12zm497-842c-84 36-210 18-314 22-106 5-234 26-296-4 131-17 480-41 610-18zm-419-45c-49 13-136 34-189 8 9-5 146-9 189-8zm-67 1116c84-1 84 47 86 126 2 88 20 167 6 255-94 3-43 5-217-171-46-47-19-40-87-49l17 217-105 58c-1-66 10-153 5-242-2-49-10-210-40-224l206-11c-44 22-87 7-152 12 47 51 27 21 74 53 66 45 115 150 217 175l-10-199zm354 727c-43 25-222 20-292 15 65-32 70-16 132-14 45 2 110-24 160-1zm-93-97c-26 7-36 10-73 11-1 0-44-2-44-2-43-7-9-1-32-11l115-22c48 6 26 18 34 24zm47-687l25 58c-57 2-41-14-25-58zm113-1075c-16 14 9 37-48 6l48-6zm-194 1810c43-24 164-21 224-8-34 11-178 34-224 8zm461-930c-88 32-484 26-618 31l69-16c25-1 58 3 85 3 63 1 98-11 151-15 59-3 110 8 142 6 56-3 114-11 171-9zm-389 84l341-28c-35 25-277 36-341 28zm288 361c15-14-20-39 120-30 107 281-224 313-300 132-35-85-33-210 34-270 54-48 230-140 216 16-127 1-181-7-187 135-10 240 213 165 167 75-19-37-16 17-50-58zm233-1389l-78 12 78-12zm23 1617c2 0 13 12-4 10-35-4-3-10 4-10zm65-621l-61 15 61-15zm19-951c-12 13 18 34-104 36-68 0-62 3-101-25l205-11zm34 2054c3 0 29 21-1 14-18-5-17-15 1-14zm-1-351c18 15 34 25 47 52-67-3-246 20-272 6 43-24 141-14 201-11 7-15 15-29 24-47zm84 105c-25 72-30 79-84 126-3-4-1-11-8-13-48-15 24-10-42-49-51 27-3 32-83 48l-50-102c-37 1-66 4-101 6-123 8-91-9-97-13l389-8c-101 43-84-8-145 45 155-4 122 14 221-40zm50-135c-6 61-21 101-50 135l26-122 24-13zm9-369c-23 27 48 24-15 17-37-4 2 10-22-12l37-5zm-3-45c-62 37-34 3-41 0 1 0 5-38 41 0zm-6 414l34-146c20 54-10 104-34 146zm-1540-845l85-17c281-12 1460-33 1514-70-41-35-27-22-93-16-122 11-598-3-811 23-93 12-889 42-923 31 46-33 110-17 163-18 202-4 1268-48 1298-69-113-77-1127 63-1395 45-51-3-34-12-103-8-111 7-282-6-332 38 68 29 229 3 325 2-69 48-231 24-328 27-98 3-228 25-334 26-180 3-591-3-721 36 63 55 148 4 221 35-56 7-100-15-144 7-49 25-6 2-24 32 112 45 499-4 652-12 42-2 76-4 118-4l120-20c-45-35-96-24-154-23-172 2-362 29-530 19 59-41 722-49 849-42l-160 23c34 50 23 43 81 37 112-12 278-26 386-8-82 22-174-3-258 6-29 2-42 10-83 13-122 9-254 14-368 22-202 13-543-12-709 43l-13-177c164 41 611-9 810-23 73-5 172 23 234-23-59-27-175-4-239 1-255 19-565-25-804 38-42-247-98-568-232-734 36 23 0-5 22 20l155 30-121 16c29 29-13 41 144 34 58-3 112-2 167-4 269-9 679-63 931-30-102 28-212 1-314 25-83 20-15-2-44 20 46 23 616-3 747-17 82-9 20 1 53-18-77-39-284 12-398-10 178-58 429-26 627-37 61-3 169-20 215 15-107 38-312-21-420 32 39 22-47 17 71 15 34 0 65-3 101-3 73 0 117-14 183-14 246-2 504 9 752-16l333-16c40-9 16-6 32-19l-352 2c12-15 3-18 28-26 17-5 39-4 58-5 39-1 77-2 118-3 79-4 153-1 232 0l36 82c-256 7-1446 12-1549 53 51 37 1064-14 1164-20 108-6 326 21 395-25 48 82 120 283 122 375-114 70-576 26-744 41-132 11-267 1-390 11-103 7-273 31-366 29-210-4-1416 32-1557 68 77 41 568-7 705-10l1568-67c268-12 534-8 802-26l7 89c-93 17-212-8-307 15-30 7-21 9-34 18 4 2 12 6 10 6l56 11c98 5 181-18 280-15 30 118 17 178 18 297 1 71-18 167-2 237 10 46 2 28 36 41-45 18-39-12-53 88-19 141-4 85-43 117 25-42 34-140 36-197 1-40 2-61 0-102l-73-31 87-24 3-96-154 1c-2 0-27-4-29-4l-24-9c70 0 153 11 207-37-28-22 1-20-50-19-50 1-117 19-164 3 43-18 26 6 83-34-29-21 33-20-123-19-37 1-75-4-109-5l350-24c-21-38 46-14-43-34-17-4-71-6-92-8 68-13 97-10 144-44-49-25-110-4-167-5l-634 21c-132 1-773 42-820 21zm1724-1095c-62 33-77-7-96 64-28-51-44-42-57-108l23 19c-1 2 1 9 1 10 0 2 3 7 4 11l125 4zm39 67c-18 13 10 15-54 33-83 24-44-2-57-10l111-23zm-71 81l123-3c-2 2-72 33-74 33-49 12-26 3-49-30zm114 1721c6 0 23 18 1 12-11-4-20-13-1-12zm49-451c-7 10 24 43-40 7l40-7zm143 585c-52 3-135 12-181 40 14 39 4 27 37 48-75 29-63-8-64 69 63 52 31 11 111 24-45 6-54-2-95 4-86 11-68 42-75 56 17 17-5 16 47 35 19 7 39 5 56 4-109 10-127-14-157 75l-31 20c42-117 123-149 179-403l173 28zm-164-1480c-11-28-15-41-22-73-41-197-84-145-88-240 55 2 99-10 138 13-58 32-51-11-99 50 45 21 8 6 71 10 35 2 46 8 83 15-189 17-120 21-133 67l183 11c-33 10-42 11-74 19l-79 28c58 38 97 18 179 14-4 3-4 9-11 10-6 1-8 7-11 8-108 48-103-24-137 68zm119 753l-1 47 182 8-144 29c-58 18-21 5-43 32 19 12 7 14 42 20 29 5 91-6 139 22-217 30-168 29-175 78l158 5c-60 84-131 24-64 126-88 15-82-5-112 49 45 26 5 14 71 18 36 3 36-1 75 6-48 30-31 19-92 24-77 7-68-2-85 52l161 23c-93 38-162-28-192 81 40 9 55-8 105 15-100 27-91 7-135 50 12-103 45-197 59-307 16-119 12-243 24-363l27-15zm55 1055l-27 53-29 6c3 3 15-26 20-32 28-38-7-11 36-27zm-55-1055c-5-39 12-15-13-45l179 4c-54 38-113 25-166 41zm-119-753c71 30 96-2 193 11-89 2-136-8-158 78 79 7 93-16 147 21-95 16-104-11-128 58l163 8-152 58c27 23-9 14 38 24 2 1 46 2 50 2 34 0 66-2 100-3l-142 35c-44 27-10-6-22 42 76 44 82-23 166 17-43 21-35 9-83 15-49 7-62 18-109 26 7-159-41-249-63-392zm96 661l-9-236 185 7c-80 66-120-16-173 69 20 14 2 14 39 21 0 0 47 2 49 2 172 3 80 25 140 99-85 13-45-11-89 37-61-29-66-4-142 1zm272 1092l-33 8c16-10 15-20 33-8zm20-1301l12 53c2 4 19 28 20 28-5-1-73 9-32-81zm89 170l-79 4c-16 458 31 195-67 673-6 32-46 192-46 193-1-10 124-523 99-911 30 30 41 53 93 41zm9 1014c-37 18-32 18-79 0 43-21 43-25 79 0zm-13-124zm105-1322c-42 23-51 35-105 10l105-10zm181 364c-33 8-240 25-260 13l260-13zm-13-248c-50 15-132 7-184 13-144 17-128-26-185 62l267-7c-99-9-173-4-256 29-27-67-23-126-45-200 23 5 11-5 32 11l-6 97 377-5zm-142-562c-38 25-68 28-108 5l108-5zm-30 387l61-4c-44 26-24 21-61 4zm127 112c-32 23-88 21-139 17l139-17zm-125 1255l161 1-33 62-162 13c71-50 82 1 153-39-20-38 36-17-37-37-7-2-70-1-82 0zm110-1835c29-37 16 1 21-60l70 4c-23 11-16-13-19 25 0 2 1 8 1 9l-73 22zm74 686c-22 50 13 10-46 41 40-78 7-6 46-41zm165-451c-10 5-10 10-38 11l-167 6c-78 2-153-5-233-4-35-81-91-69-84-8 2 20 11 2 0 30l-101 17 35 75c161-8 282-34 450-20l-59 17 54 44-95-46c-91 2-226-8-280 47l106 16c-13 3-45 6-45 6-39 12-30 8-49 28 35 27 26 21 104 16-32 14-146 45-178 34 14-40-9-5 17-23l50-32c-67-11-33-13-88 6 16-49-33-24 48-32-19-49 39-31-64-39-7-92-37-76-31-173 80-9 79-18 159-17 69 1 133-3 201-11l-8 45c60 19 109-1 226-2 7 0 26-1 32-1 53 5 23 4 38 10zm-89 595c-15 2-55 10-65 10-97-6-14 7-55-21 67-12 54-18 120 11zm36-324c-37 21-66 40-109 14l109-14zm-57 1431c-29 23-91 16-132 22-52 8-105 13-136-3l268-19zm116-1245l-68 18 68-18zm-61-713c5 7 40-17 15 36-14 29 28 16-41 14l26-50zm66 959l-60 6 60-6zm-30 149c53-10 115 33 138 62 19 23 133 368-120 393-247 25-233-418-18-455zm55 967l-47 7c30-24 13-29 47-7zm-68-1230c72 25-6-16 39 55-49-14-3-13-39-55zm123-12c-22 18-8 22-33 8l33-8zm-301-626l373-23c72 9 26 4 49 22-79 0-383 14-422 1zm349-298c-4 53-1 75-51 30l51-30zm169 736l-204 21c-97 14-28 8-55-9l20-11c83-22-78 15 28-6l211 5zm-180 311l53 2c-22 35-14 26-28 61-5-23-13-54-25-63zm67 1142l13 73c-34-17-12-3-32-21-9-7-4-11-33-24l52-28zm61-1399c-44 27-121 24-189 19 21-8 176-22 189-19zm1 235l-15 18c-29-3-11-1-24-11l39-7zm-21 906c37-21 7-23 48 2-15 7-22 13-48-2zm-5-1005c15-8 35-12 49-9 38 9 9 1 32 17l-81-8zm57-134l122-7c-34 29-80 26-122 7zm126 1308c-39 16-78-1-108 0-48 2-98 10-147 7l63-33c-55-30-90-6-180-9l-5 45c-22-9-13-22-39-44-35-29-10-5-50-15l32-18c47-45-2 5 19-45 61 24 8-19 50 48l289-2c-28 37-36 24-73 50 84 7 83-19 122-5 27 9 18 13 27 21zm-52-2022c24 25 41-33 17 22-28 63 48-23-33 34 14-50-17-59 16-56zm59 836l-52 9c18-14 29-32 52-9zm65 1289l-76 3c1-6 1-19 27-19 96-1 13-8 49 16zm-112-220c43-23 60 0 103 7-2 0-103-7-103-7zm48-36l10-59c43 35 38 12-10 59zm36-1882c-9 34 0 16-32 38 13-50 0-9 32-38zm76 665c-35 21 41 17-41 17-52 1-35-13-38-16 66-51 79-1 79-1zm-75 426l32 9-32-9zm22-122c1 0 52 16 0 76 0 0-32-12 0-76zm122 947l-102 20c6-12-6-20 37-27 49-9 65 7 65 7zm6-1013l-71 20 71-20zm-91-890l55-10c-49 27-8 38-55 10zm-20 2059l202-3c-73 40-30 27-104 19-87-10-47 32-98-16zm185-105c-37 19-26 27-73 1 12-7-21-9 27-11 48-1 40 8 46 10zm-117-951c65-32 53-7 67 30-70-13-53-9-67-30zm76-50l-78 19c22-13-15-7 48-21 33-7 19-15 30 2zm-214 396c-34 82-1 104-19 181l-76 8c7-110 2-261-26-358l-63-1c241-93 111 32 380 201l-12-239c55-1 86-44 87 162 1 58 32 183-2 217-82 81-176-184-269-171zm282 648l-36 16 36-16zm-14-2054l-17 16c-1 0-8-2-9-2-1-1-5-5-8-6l34-8zm226 692c-73 48-72 14-158 10-76-3-91 24-163-3 49-6 301-18 321-7zm-76-772s19-14 21 24c1 35-14 19-21 24-23-43-11-21 0-48zm83-30c24-1 17 28-2 24-22-5-40-22 2-24zm74 933l-40-21c60 7 28 12 40 21zm-42 1044c-12 46 31 24-43 25l43-25zm-28-290c-17-31-33-341-34-401l71-8 28 328c87 10 190-16 169 47-27 82-214 44-234 34zm49-579c32 0 14 18-1 15-17-3-36-16 1-15zm84-56l-36 7c11-14 19-47 36-7zm31 212c-47-11-12 11-31-30 36 15 19-11 31 30zm0-1164c-48 24-66 9-129 11-26-34-13-17-39-44 43-26 48-21 62 40 30-2 46-7 69-10 28-3 21-43 37 3zm97 759c-93 12-684 44-738 19 199-26 213-3 274-4 74-2 327-53 464-15zm-71 53c11 7-1 30-10 13-3-5 6-16 10-13zm30 1119c43 2 19-9 45 17l-45-17zm29-948c84 144-111 86-111 86l94-15c-21-48-71-90 17-71zm35-49c-3 2-4 7-11 8-16 0-2 19-42-7l53-1zm30 1064c-14 14 25 22-31 21-34 0-25-8-37-15 13-6 21-21 68-6zm91-1115l-430 13-25 38c-36-57 11-41-97-36-30 68 11 56-52 63 6-5 31-2 24-52-79-17-170 25-227-16 235-3 493-1 723-31 81-11 72 14 84 21zm-22 1318l-246 22c-26 4-23 24-69-2 52-23 37 12 90-42-57 1-246-7-289 26 40 20 88-15 169 16-27 83-17 45-206 48 83-23 22 11 98-26 3-1 8-6 12-9-88 1-205 16-283-10 52-3 104 1 139-19l-133-18c166-45 98 40 211-87 3-4 11-18 15-21 27-26-18-1 37-24 31 62 40 91 105 32-82-16-59-6-77-34l-27-37c-14 8-110 20-117 3-36-87-8 47 2-20 0-4 9-24 11-30-103-12 0 9-69-75 104 11-34 48 140 68-85 20-38 10-40 36 20 8 78 34 139 1 68-38-34-49 103-43-26 131-15 9-124 103 70-4 96-11 149 12l-75 8c24 47-3 16 36 53-62 0-158-9-194 24 47 28 224 10 312 2l33 47 148-4zm4-2259l13 57-112-3c51-32 16-52 99-54zm139 1051l-123 15c13-15-35-19 46-24 24-1 53 5 77 9zm-79-972l22 63-81-1c24-71-21-60 59-62zm-13 1719c29 1 14 19 2 16-13-3-25-16-2-16zm-39-1169c24-14-31-17 35-14 55 3 5-2 26 10l-61 4zm125 1269c-40-16-19 5-30-31 38 7 18-22 30 31zm30 89c-30 25-28 18-45 7l45-7zm85-993c-75 1-193-9-246 24-22-26-17-8-11-44 150 21 158-13 205-8 39 4 42 19 52 28zm8 41c-22 27 35 24-29 24-34 0-25-6-43-17l72-7zm-45 865c6 1 35 35 0 19-20-10-35-25 0-19zm-7-112c3 63 9 33-17 54 24-57 17 11 17-54zm1-1807c-8 37 42 32-53 18 18 48 10 46 8 49l-94 4 3-55c65-1 90 15 136-16zm75 1122c3 0 21 17-2 12-18-4-15-11 2-12zm61 811c-118 133-30 72-136 73 29-3 44 2 65-20 20-20 11-42 27-71l44 18zm22-734c-18 86-45 50-152 178-88 104-40 137-57 276-138 17 26-57-213-303-41-43-36-69-86-79l91-18c27 24 36 30 68 58l82 70 53-50c143-167 100-94 214-132zm-1-205c-29 38-35 17-56 60l-17-54c46-17 42-34 73-6zm-8 58l65 1c-18 6-10-7-39 35l-26-36zm208 944h-196c51-26 17 2 99 6 49 2 80-19 97-6zm-60-1011c10-1 38-6 46-6l37 8c2 1 6 5 9 7-30 11-72 4-92-9zm185 1002c-21 6-30 28-64 9l64-9zm104-1186c-45 6-83 7-128 6-72-1-88-13-141 20 44 68 25 20 106 43-75 7-138-1-199 22 35 72-13 2 63 49-24 10-158 1-225 8-23 2-191 0-201-4 53-16 120-14 180-16 110-3 132 36 165-54-94-2-154 17-249 15-94-2-187 6-282 3l388-32c52-3 22 2 46-17-79-52-345 10-399-16l447-22 17 57c10 0 42 2 51 1l57-34-26-31c96-5 259-20 330 2zm-35 624c-12 9-34 21-52 30l-4-58 56 28zm18-1499l-17 45-104-31c53 7 80 4 121-14zm168-28c5 1 30 32-1 18-20-9-25-21 1-18zm117 83c-37 22-37 32-71 10l71-10zm-128 1081l-40-30c-51-22 47 8-32-8-25 62-19 73-13 154l70 21c0-11 0-43 2-57 0-5 3-25 4-30l23 104c124 13 155 53 153 194-51 108-66 74-148 134l-7 124c-12-43-16-114-25-139l-75 100-13-104c-57-16-42 1-70-47 32-30 13-22 72-16l-15-252c-184-87-119-61-166-179 96-13 32-16 74-42 63-41 33 30 75-46-17-11 26-20-53-19-94 1-4 15-71 17-62 1-10-33-113-2l3-40c57 10 173 40 246-6-35-35 29-19-66-24-54-3-11 19-65-9 43-21 100-11 156-7-10 35-8 9 1 47 1 4 2 9 4 13 1 5 6 22 7 27 11 29 2 11 14 29 56-14 17-42 62-65 49-24-9-2 44-4-20 40-31 14-36 74 38 32 56 30 110 52-17 14 43 15-39 18-144 3-56-4-73 18zm211 0c-9 37 40 43-54 24l54-24zm55-1139c-41 33-42 49-80 7l80-7zm0 1089c42 1 22 22 5 18-24-5-20-19-5-18zm-9-111l122-2c-66 15-65 30-122 2zm9-978c24-36 20-32 62-16l-62 16zm-6 2060c13-50 25-78 81-79-35 58-8-14-34 67 66-10 46-18 92 6-73 41-20-25-139 6zm125-1046c-23 40 17 24-45 31l45-31zm29-962c-49 45-34 37-90 17 85-104 53-63 238-67l-64 19c10 38 10 24 0 40-40-7-34-12-84-9zm40 2002c80-42 60-2 64 0-21 9-33 10-64 0zm247-1135c-109-13-406 33-469 1 67-25 415-20 447-13l22 12zm-87-837c-30 19-13 20-88 21 16-34 8-16 11-58 60 15 34 1 77 37zm-69 1021l-59-6c78-17 15 4 48-28l-46-44h130c26 99 12 224 25 333l19 339-88-3-2 49c-48-23-26-30 2-56-19-67-33-514-29-584zm94 795c-81-7-35 13-49-25l49 25zm77 142c-16-19-28-32-32-70-5-55 3-68 21-94l11 164zm24-953c71 4 26-13 38 32-12-10-30-22-38-32zm87-52l-153-9c21-13 38-4 74-6 65-5 60-42 79 15zm32-71c-51 6-172 21-212 5 39-25 152-27 212-5zm3 128l13 35c-18-13-36 28-13-35zm44-1103l-6 51c-49 5-46 13-86-7 12-4 1-7 27-5 0 0 45 8 50 9l15-48zm60 1870c6 0 33 36-1 20l-3-7c-1-10-15-16 4-13zm123-839l-132 4c28-38 86-31 132-4zm47 787c34-2 3 35-4 19-15-32-17-18 4-19zm42 85c-4 10-23 13-2 51l29 28-59 26c24 29-5 14 34 32-63 23-22 18-93 3 56-85-7-105 91-140zm-118-488c-20-86-53-83-56-153-3-65 29-108 36-178 91-27 347-128 346 161-1 106-20 134-100 184-87 54-138 19-226-14zm189 518c6 6 25-15 8 23-9 22-12 17-22 28l14-51zm37 64c36 23 48 24 111 23l-168 19 57-42zm27-1985c-5 19 19 13-7 19-27 6-12 2-25-5l32-14zm168 1912l-14-42 14 42zm-10-843s-29-22-3-12c5 2 30 16 3 12zm40 932c29-48-4-28 55 12l-55-12zm55-1914c28 2 30 12 2 15-13 1-35-17-2-15zm25-82l-31 7 31-7zm42 104c-34-50-9-15 7-69 10 67 14 35-7 69zm-25-145c31-20 19-6 39-17l38-33c-16 45-31 70-77 50zm116 1945l-11 34 11-34zm80 4l-10-44 10 44zm3-1876c-17 27-29-10 0-14v14zm142 1954c-93 33-32 2-45-8 31-15 22-6 45 8zm-747-427c50 28 9 14 52 19 41 6 8-11 42 0 65 20 26 50 311 64 80 4 240-18 299-77 40-39-16-37 53-43-30 105-342 174-421 168-82-8-331-90-503-43 14-54 25-60 76-62 91-4 4 15 91-26zm828 486c-47 34-24 20-59-2l36-26 23 28zm-14-998l-17-4 52-6c-1 0-35 10-35 10zm-204-957c52-27 44-27 109-11 9-64 2-29 15-52l30-37c36-42 29-43 81-52-13 93-37 67-62 73-58 15-43 32-69 73l-104 6zm236 819l-183 34c62 84-72-27 17 23 54 32 73 2 97 10-14 3-39 3-45 4l-58 21c-14 83 132 139 43 310-60 115-200 102-305 68-25-128-13-148-93-190l21-77c91-32 37 7 43-63 30-5 27 2 58-12 61-27 15 4 46-45-95-5-246 26-298 0 106-35 142 22 216-32l-71-23c-123-9-501 26-598 18 52-44 66-16 162-16 72 0 128-13 169-9 140 12 252-19 349-4l25 44c2 2 6 7 8 11 224 7 76 15 207 34l-3-95c-218 19-156 54-184-1l101-4c-12-63 30-33-48-62 42-22 109-14 151 7-42 11-46-1-93 33 20 14-28 13 52 22l214-6zm23 973c3 6 30-16 0 41v-41zm12-1875c21 0 24 18-1 23-15 3-41-25 1-23zm36 1087c44 111 60 34 34 90l-34-90zm20-64c22-16 20-15 42 4l-42-4zm-51 1004c40-1 79 1 117-1 17-1 35-5 50-4 41 3 19 4 39 15-73 29-78-52-198 41l85 10c-33 12-255 41-317 0 4-1 9-4 13-5 3-1 9-4 13-4l169 9c24-70-3-26 29-61zm146-71c-44-38-38-9-41-61 88 10 35 38 115 61l4-113c-1 90-4 41 51 77-18 19-41 48-65 58l-86 12c1 0-5-2-7-3-11-26-9-9 29-31zm91-937c37-24 43-13 102-8l-102 8zm19 1169c41-24 86-12 139-10-34 23-101 30-139 10zm51-1244l-39 18c14-37-5-21 39-18zm2-1011c-59 9-23 8-77 18 13-54-20-23 50-52l27 34zl65 27-74 6 9-33zm-18 2029c62-18 45-1 56 20l-56-20zm92-65c22-19-41 35 0 0zm-14-720c17-5 10 8-3 16-23 14-2-15 3-16zm-75 896c-10 34 9 11-27 29-31-44 10-25-12-75 94-1 82-22 133-26h11l-99 30c-1 3-3 8-3 10l-3 21v11zm187-993c-68 1-5 2-29-18l58 9c-8 4-11 8-29 9zm89-1460l-98 49c17-36-3-23 33-43 19-11 40-9 65-6zm-63 2309c5-33-16-16 18-33 37-18 34 6 38 11l-56 22zm-8-794c58-25 44-19 58 17-54 22-56-15-58-17zm-3-1097c71-5 44-25 75-5-66 30-649 41-671 35 42-24 109-14 168-7-12-43-10-52-23-51l145-4c-75 26-16 1-50 34 76-2 52 11 112-35l49 18c4-2 12-16 20-17 6-2 5-7 8-11l107 41c-15-32 10-22-31-43l82 34c6 2 6 8 9 11zm131 961c-46 2-19 9-39-14 28-17 22-5 39 14zm-780-145c12-12-20-31 67-21 218 26 129-7 300-10l376-9c24-1 19 2 29 7-232 46-99-7-154 69l-350 46c-22-29 10-13-39-33l289-8c103-2 79-20 92-44-14-8-10-12-42-19 0 0-48-4-51-4-27-1-55 2-80 7-142 29-110-18-301 15-53 10-60 4-136 4zm633 1337c47-31 99-21 168-18-61 89-59 93-180 119 33-31 32-16 50-54h-135c76-29 145 1 213-45l-116-2zm152-1019c28 47 18 15 0 38-34-57-2-35 0-38zm7 549c-1 0-22-20-6-13 40 16 23 15 6 13zm-40-598c69-22 90 38 0 0zm28-1357c-49-30 1-18 2-24l86-6s-35 11-36 11c-3 1-8 4-12 5l-21 12c-24 8 7 18-19 2zm40 2173c24 1 24 15 0 19-15 2-33-19 0-19zm-101-2223c13-36-13-21 86-46-24-68-3-13-36-61l29-7 35 49c1 1 41 13 44 14-43 30-52 14-97 32-66 25-10 41-61 19zm-232 2358c77 1 128-6 199-14 77-9 123 6 196-3l-45 81-144-6c33-28 83-7 154-22-35-32 41-43-160-28-60 5-96 0-138 22l99 24c-74 21-738 44-777 27 74-36 481-16 493-18 83-14 95-13 181-13-30-66 22-19-58-50zm361-1034l-1 42c-24-9-22-6-38-20l39-22zm-342-70c49-48 274-47 364-26l-19 65-33-66-312 27zm265-86c-138 20-47 7-74-14 77 0 155-11 200 7-51 6-77 1-126 7zm-5196-642l30 69 297 3c14-86 33-84-32-93l148 20c1 2 3 9 4 10 0 2 2 8 4 11 40-4 58-8 86 11l21 15c14 6 41 10 57 11 31 1 95-4 134-8-26-54-17-23-69-39 126-25 265 33 374-43l-100-4c44-26 39-63 64-109l18 90c52 5 52 8 95 3 6-1 15-9 36-8 55 2 13-4 26 18-63 19-32 13-99 1-17 86-137 53-240 55 28 84 55 20 132 22l48 15c-56 29-133 5-200 17-76 15-29-5-46 30 57-7 210-29 261 3-64 32-79-12-134 40l241-9-71-43c112-10 253 14 329-36-67-4-288 10-322-11 101-24 261 20 343-35l-195-13c53-8 92-9 145-12 23-2 40-10 58-4 44 15 8 3 19 25l7 21c74-14 229 15 221-60-5-41-4-23-12-40 58 16-2 1 58 38l7-15c18-56 13 8 43-69l43 27c30 13 13 11 54 12 45 2 69 0 99-18l-20-8c-3-2-18-7-23-9-121-64-137-32-151-132 58 28 29 39 131 35l-18 48c70 9 29 17 101 19l12-83c40 70-20 39 72 56l19-51c2-4 6-10 7-13 2-3 5-7 8-11 41 24 25-3 40 33 1 2 0 7 1 9s0 8 1 10c6 26-10-2 8 31l99-23 35 51 83-10c21 29 22 28 50 48 9-2 61-15 63-16 3-1 7-4 10-6 4-2 7-6 11-8 3-2 7-6 11-8 28-15 5-7 42-16l2 53c-82 36-35 0-86 21-4 2-9 6-12 8-3 1-8 6-11 9l337-92c3 3 12 8 9 10-3 1 7 7 10 9 56 47 192 11 265 5l30 26c1-1 2-13 4-18 5 3 19 8 16 9-41 24 201 31 205 31-35 19-25 7-39 48l158-15-57-71-191-41 124-23 47 49 138-12c-16-32-84-16-111-23 2-2 16-14 24-21 36-30-8-2 36-27l-15 23c-2 2-7 6-11 9 18 1 77 2 89 6 3 1 7 3 10 5l32 21c2 2 7 6 12 7 66-26-34 38 25-11 2-2 8-6 10-8l47 28c-81 27-57-47-93 31 80 13 82 22 126-28 75 53 112 31 203 24l-95-42c34-12 43-5 78 1 79 12 47-4 81 49l-70 34 130 2c37-72 23-52 125-50 109 3 74-30 149 5-72 2-170-7-226 25 35 24 98 18 140 15 55-4 101 2 138-35l53 22c78 9 63-18 65-20l-84-23c229-20 374-15 614-24-87 29-369-3-427 47 37 22 529 1 563-15 3-22 39 13-21-34l81-24-48-56c-45-39-15 41-41-71 180 83 336 513 349 703-48-2-93 7-120 8-31 1-86-11-132-9l-501 32c-73 2-173 13-250-1-62-12-11-2-33-15 96-44 376 29 485-34-26-18 29 2-35-18-35-11-51-11-72-43l-12-18c-29 1-65 0-94 2l-74 27c36 21 96 10 138 29l-370 17-17 52c-60 6-72 19-117 3l34-13c35-16 16-5 37-20-33-23 36-17-50-18-3 0-40 7-54 7l-33 55c-71 4-59 17-128-1 51-16 96-13 134-45-58-9-184-8-199-14 63-36 190 10 260-34-23-22-37-26-83-24-87 4-278-11-335 25 38 30 57 11 92 33-67 43-772 37-926 37l-251 18c-63 7-37-2-64 34 109 13 477-23 524-4-105 55-317-30-406 51 46 43 293 7 380 5l101-1c29-8 23-12 37-22l-84-18c64-58 620-49 775-44-113 33-583-2-658 62 67 41 877-39 1058-9l-146 6c7 79-13 33 36 52-61 21-167 0-234 14-32 7-23 9-40 19 56 82-50-13 16 23 18 10 1 7 41 15 12 2 41 0 63 5l-130 5-13-45c-1-2-2-6-3-9-62-1-70-8-114 23 19 15-2 6 32 17 14 5 10-3 41 10-21 10-52 24-89 18-2-1 1 43-29-23-1-3-5-31-8-37l-67-6c-15 43-9 22-4 76-105-29-216 6-321-14 85-4 220 11 291-41-55-41-334-11-393 10 1 4 4 10 1 11l35 42c-67-4-113 18-153-11 34-20 7-3 44-13l42-15c3-1 8-5 12-8-141-32-175-7-265-9l-296 18c-79 9-141-60-183 28l104 19c-70 46-28 20-100 16-55-4-84 4-144-5l99-19 21-60c154 12 413-34 510-19l745-22c124-14 282 7 390-6 49-5 27-3 56-25-34-57 8-27-72-30-159-7 11 29-184 8-64-6-847 41-1086 36-183-4-318 20-502 20 111-41 230-4 340-40-51-52-37-31-189-26l-361 23c-55-5-145-14-194 14 98 59 278 10 385 25-96 5-640 25-658 33 13-26 3-18 121-30 62-6 38 3 61 5 87 8 43 0 66-16-86-62-182-24-288-19l-16 53c-55-21-9-42-67-54-6-1-237-14-305 38 76 57 210-8 299 11-42 23-375 34-403 23l75-34-66-20c-81-1-187 34-262 4l1035-58c116 13 118 7 212-4 93-11 320 16 396-9 67-22 23-15 40-33-90-37-822 35-966 16 84-53 210-8 313-24 89-14 26-5 53-24-77-35-403-11-523-1-114 9-439 5-518 37 17 15-26 31 119 20 133-9 297-41 416-4-72 32-369 23-483 30l-383 12c-53 2-95 2-127 26l27 16c92 20 234-21 318 12-255-2-469 11-719 15-3 5-1 13-8 16-31 13-1 27-26 56-85-28 55-19-48-75 140-9 288-2 432-20l23-63c87-5 334 12 391-24-22-21 36-17-62-23l-536 16c-44 11-10 1-36 25 42 24 110 14 152 29l-234 7c65-43 21 2 51-53l-243 1c47-34 277-25 360-29 85-4 328 3 375-15-53-84-219-30-308-27-110 3-242 20-313-5 119-2 592-16 666-38-32-26 35-19-153-20l-501 12c-2-3-1-8-6-9l-27-39c-34 6-388 30-412 20 70-43 402-32 479-33l-2 34c22 13-1 22 94 10l99-35c-63 0-81 15-119-11l175-26c-83-45-100-1-148-24l236-29-25-48-364-24c32-14 96-10 122-32-49-24-175-4-252-6l-109-52c101-13 45 20 108-44zm5330 708c18-19-29-28 61-16-36 27-27 28-61 16zm33 186c2-65 3-13 14-35 31 6 38 11 35 50-6 70 0 19-35 36-10-18-15 16-14-51zm-39-1323c-90 21-51 51-83-19 44 5 70 11 113 4 35-5 32-13 83-14-40 22-60 17-113 29zm-9 2224c18-55-3 6 23-44l12-24c3-5 7-20 9-24 9-21 21-37 27-67 0 40-9 52-29 89-21 41-18 42-42 70zm76-2057c-26-40-39-52 32-59 49-5 109 1 159 5-49-5-150 25-191 54zm98 2483c-146 1-143-16-204-37l204 37zm15-2607c-51 15-93 40-146 38-62-3-13-2-38-12l52-22c1-1 41-5 41-6 47-4 45-4 91 2zm38 2533l-84-7 84 7zm-140-624c74-60 32-160 88-282 11 123-33 178-70 334l-18-52zm93-349l9-109c33 14 6 84-9 109zm-1016-689c209-42 635-36 877-45 126-5 151-137 167 339-123-14-148-7-179-31 96-2 69-18 151-2-8-49-16-51-15-108l-131-5c95-14 104 23 139-42-67-48-185 1-224-16 63-30 115 14 204-33-67-48-65-2-124-48 121-5 59 25 120-19-52-38-73-19-155-20-160-1-104 0-125 47 53 15 54 0 121 11-74 42-19 14-95 8-50-4-82 6-134 7-95 2-154 8-251 8l-364 7c-63 9-34 20-117 11 67-34 688-31 766-56 38-13 18-9 40-25-119 1-239 2-358 2-117 0-202 13-313 10zm1032 481c24 36 15 18 6 74l-6-74zm202-1126c-8 5-7 11-34 20 0 0-19 4-25 5l-147 10c-38-2-24-1-45-16 33-31-41-6 53-28 69-16 144-22 198 9zm-302-70c69-39 174-20 256-10-49 31-61 20-125 24-86 6-77 25-131-14zm125 194c16-36-25-35 59-52 113-22 221 24 222 25 6 0 7 4 11 3l-292 24zm76-266c21-13 15-10 41-10l-41 10zm29-86c23-11-40 21 0 0zm-691-138c75-41 211 95 230 111 117 98 192 158 280 337 256 518 328 1022 135 1604-76 228-219 498-382 598 29-68 131-98 206-276 25-59 58-100 78-152 99-250 179-740 137-1026-40-277-104-517-220-735-40-75-48-84-92-142-252-337-283-230-372-319zm675 700c-24-50-56-120-73-175 118 7 197-26 274 10 3 2 5 8 12 9s7 6 11 9c-85-2-190-4-258 30 75 49 173-23 280 55l-235 25c-9 11-11 36-11 37zc121 6 194-19 272 35-96 7-157-5-240 26 45 49-88 19 149 33 41 3 87 11 122 28l-260 17-43-139zm101-549c-37-19-42-16-42-59l42 59zm-254 2327c63 0 84 15 157 16 111 2 82-19 137 9-19 9 8 8-28 7-4-1-50-12-53-13l-5 99c-28-67 7-76-104-93-69-11-120-11-155 27l51-52zm271-793c63 47 137 8 228 44l-247 26 20-156c20-5-10-6 17 2 121 33 132 0 197 33-26 22 46 8-45 21-7 1-58 0-69 0-137 2-85 15-101 30zm-25 100c43 41 121 32 193 38-174 70-181-32-207 79 41 23-44 14 58 18 54 2 3-21 100 8-218 35-162-3-167 81l190 15c-213 32-185-7-215 62 24 16-4 12 58 23 23 3 73-2 130 20l-146 9c-56 46 5 3-41 14-50 12-29-11-40 39 56 27 144 16 220 22-30-6-77 18-138 18-105-1-113-28-136 61 63 23 183 23 267 14l-7 36c-28-49-60-30-141-26-181 9-122-16-161 37 45 94 78 9 157 67l-175-25c18-62 37-84 64-142 70-148 103-313 137-468zm206-1614c-66 23-69 30-133-3l133 3zm-250 704c73 4 209 0 270 41-23 7-231 30-263 30l-7-71zm67 309c67 38 57 9 153 15 48 3 39 6 72 15 7 2 31 8 38 10l19 9c-82-4-214-1-264 51l22 11c14 4 12 3 29 6 12 2 37 2 49 3 38 5 63 11 107 13l-108 26c-74 9-72-9-99 41 70 40 164-3 234 50-27 51-15 10-115 7-140-6-113 29-120 43 48 29 137 28 208 26-16 39 12 12-18 42-58 55 38-2-17 7-36 7 2-6-52-11-50-4-71 7-127-2-11-88-11-189-19-279-4-52-8-89-15-140-19-138 6-114 16-123 39-38 159-17 192-3 39 17 26 17 39 31-50 2-101 3-151 7-105 9-78 12-93 45 45 18 38-13 145 10l136 17c7 0 9 4 13 6-51 21-87 10-154 19-162 23-105 21-120 48zm263-1003c-35 16-14 12-42 1 38-39 18-17 42-1zm-19 2039l69 3-96 17 21-97c24 36 16 23 6 77zm78-2125c53 12 24-10 34 32l-34-32zm104 1875c57 8 42-31 40 37l-40-37zm89-1725l-192-18c67-14 131-14 188-28l4 46zm138 1947c1-4 2-9 3-12 18-51-5-9 31-36l-69 133-289 1c36-5 61-3 93-8l59-7c58 3 100-2 155-16l17-55zm-668-2041c28 14 23-1 44 36l17 45h218c-51 21-74-6-111 33 3 3 6 7 9 8l180 4c107-14 147 28 173-32 61 41 164 238 195 312l113 368c37 124 33 560 3 698l-54 181c-74-10-121-51-186 18 57 25 62 13 136 11 15 27 16 29 42 67-39 65-19 115-59 182-66-45-9 5 17-68l25-106h-119c18-10 21-8 32-13l45-28c-32-23 41-10-49-22l-157 13c-212 18-146 2-183 51 74-10 221-33 269-8-80 27-214-2-283 50 16 11-27 36 62 8-3 58-14 33-13 55 3 65 8-21 12 46l-74-76 26-140c80-6 168 4 224-27-28-27 28-26-67-29-13-1-55 7-69 9-64 11-65 29-71-21l356-9c15-2 35-4 52-11 35-13 13-7 30-23-107-52-292 34-432-8l120-41c-3-2-8-5-11-7s-9-5-12-6c-12-8-9-2-32-23l119 14c-54 19-16-7-41 44 94-3 223 12 307-23-10-7-1-10-33-17l-135-5c54-18 138-15 177-45-50-29-286-5-373-2 3-2 7-5 9-5 2-1 7-4 10-5 33-8-16 2 28-5l150-9c36-1 76-4 111-10 73-14 56-18 74-37-97 0-348 29-392-9 134-32 282 25 377-35-21-14 20-13-52-22-17-2-34 2-51 3l-284 4c15-10-16 3 33-17 28-12 15-4 33-11-29-27 10-8-36-21-34-9 12-4-37 6 33-64 17-9 21-68-149-15 6-76-125-548-18-68-45-151-70-216l-92-194 35-20c28-14 3 3 29-13-31-21-51-8-86 5-7-76-86-136-124-236z"/>
 <path class="fil0" d="m12148 8865c-68 49-233 37-315 31 11-32-12-13 108-22 76-6 127-8 207-9zm-37 59c-37 23-50 35-97 12 15-12-6-12 30-16 18-2 48 2 67 4zm32 12c54-29 317-33 403-32-51-39-78-36-127-32-189 18-183 29-209-34-136-1-674-5-748 45l333 3c-71 27-620 41-720 42-127 0-79 7-100 28l981-25c-98 67-39-2-192 26l-71 30c27 16-9 10 29 11l175-13c-28 53-27 16-22 53l22 13c29 5 11 3 43 1-3-68 13-30-33-46 4-3 13-7 11-7l642-28c75-10 60-27 65-32-137-34-390 32-482-3z"/>
 <path class="fil0" d="m6823 9372c-118 1-275 8-396 16-541 36-1085 25-1643 67-88 7-141-4-218-2l-586 39c2 1 3 22 87 25l668-38c114 16 264-5 399-8l2067-91c-19-17 35-12-46-22l-152 8c-81 5-109 5-180 6z"/>
 <path class="fil0" d="m9995 9056c-15-40-11-28-51-45 106-16 279-19 311-38-66-42-241 34-334-31 40-2 80-3 120-5l78-14c-55-33-163-5-229-1l-33 50c-61 5-171 8-234 7-52-1-62-11-113-5-24 3-53 10-87 13-105 8-321 27-391-1 70-9 147-7 205-27l-298-2c-140 17-238-24-298 20 51 36 181 1 331 3 10 26 0 5 5 22 19 64 89 29 229 27h215c99-1 387-55 467-8-106 46-431-24-525 38 34 50-10 27 60 23l251-9c85 3 227-9 321-17z"/>
 <path class="fil0" d="m-3586 9997c-64 11-22 11-61-9 28-13-36-20 30-8 5 1 22 12 31 17zm83 15c34-21 34-21 42 28l-42-28zm-195-156c4 2 14 4 12 5-38 12 15-3 57 25-33 18-68 38-109 58-63 31-72 26-89 86 58-2 68-14 145 13 140 49 92 27 123 73 75 3 177-35 201-112-1-2-29-30-32-35-63-97 44-72 62-165-100-55-313 50-370 52z"/>
 <path class="fil0" d="m-3604 9710c-23 9-21 3-42 1l87-32c-19 17-14 19-45 31zm297-23c-217-33-208-119-439 32 20 13 6 11 42 12 4 0 15-5 37-2-52 22-206 91-200 165 45 6 130-58 194-85 54-22 212-42 279-41 1-2 4-5 2-5l113-25c-10-37-5-30-28-51z"/>
 <path class="fil0" d="m12278 9704c112 121 199 21 223 5 42-28 16 1 60-39-62-188-314-224-283 34z"/>
 <path class="fil0" d="m6079 9299c-52-29-683 12-796 14-134 2-725 10-795 51 101 13 1532-41 1591-65z"/>
 <path class="fil0" d="m8356 9833c-79 96-88 213-38 318 72-1 90-12 135-41 17-220 56-181-97-277z"/>
 <path class="fil0" d="m11827 9535c-173 89-83 267 34 238 30-14 109-81 128-102-53-79-39-126-162-136z"/>
 <path class="fil0" d="m9822 8838c-47-36 17-25-66-21l-105-9c88-43 274 9 349-46-143-28-419 10-494 9-68 0-99-20-157 20l73 18c20 1 46 0 66-2 64-7 52-21 124-5-15 10-8 14-39 22-16 4-16 2-33 3-92 4-45-12-221 10-97 12-206-2-248 3-86 9-33 7-53 19 50 28 29 21 95 10 181-32 444-5 709-31z"/>
 <path class="fil0" d="m11596 10633c-24-36-5 6-13-31 0-2-1-8-1-10-1-2-1-8-1-10-1-1-1-6-2-9-100 3-73 19-201 1l82-100c-91 3-24 9-99 44-4 2-57 20-66 23 34 63 11 15 0 38-40-16-18 5-61-62l-115 18 51 56c-48 12-22-3-50 37 91 3 142-15 214-6 130 16 126-44 222 2-18 124 22 2-62 87l149-59c38-20 38-6 89 6-28-51 38-27-54-32-9 0-68 6-82 7z"/>
 <path class="fil0" d="m5296 9994c-107-20-125 39-123 142 1 108 38 129 141 112 46-76 36-193-18-254z"/>
 <path class="fil0" d="m1381 9710c49 23 1113-43 1333-53 84-4 148 14 202-17-41-19-1472 42-1535 70z"/>
 <path class="fil0" d="m10174 8705c-2-3-1-9-6-11-55-14 18 12-22-30 0-1-4-3-6-5 0 6 0 16-1 17-13 12 8 5-33 18l-16-64c3-1 50-6 50-6 35-12 20-8 40-22l-158 3c-76 13-19-1-48 23 52 21 30-19 91 12-16 8 16 4-41 15-2 0-45 5-48 5 5 3 29 11 32 12l27 16c3 3 9 7 13 11l-220 11c24 54 36-2 227 20-14 28-17 39-23 85-72-9-111-23-162 9l86 15c136-5 107-19 76-56l75-1c33 36-6 37 50 47 1-4 9-11 4-13l-2-62c-2-3-7-6-9-9l136-33c-28-25 65-23-112-7z"/>
 <path class="fil0" d="m1801 9407c67 32 387 2 467-6 82-9 179-10 263-12 46-2 74-7 117-8 150-6 91-7 115-30-129-3-902 24-962 56z"/>
 <path class="fil0" d="m12649 8960l916-42c-56-58-67-26-203-20-201 7-615 8-684 40-6 3-10 7-15 10s-9 8-14 12z"/>
 <path class="fil0" d="m6434 9217c-134-3-1119 27-1164 51 20 17-43 16 52 10 303-20 1038-15 1112-61z"/>
 <path class="fil0" d="m11279 10778l-227-34c46 71 20-16 71 41-205 7-126-33-178 33l417 9c162 2 122-10 139-36-57-37-155-19-222-13z"/>
 <path class="fil0" d="m831 9795c39 19 622-12 749-21 95-7 74-23 87-33-200-2-527 29-738 34-16 0-36-1-51 2-59 8-34 10-47 18z"/>
 <path class="fil0" d="m10400 9049l149-13c-21-23 52-41-142-28-73 4-81-12-148 14 40 34 39 12 84 35-72 34-55-12-122 33 105 42 183 2 232 5l226-22c-81-37-231 21-279-24z"/>
 <path class="fil0" d="m1062 9393c107 12 900-21 946-52-48-22-356 2-447 15-101 14-449 7-499 37z"/>
 <path class="fil0" d="m10553 9023c22 11-2 12 34 10l505-16c71 4 122 6 169-23-61-35-254-11-353-5-99 5-306 1-355 34z"/>
 <path class="fil0" d="m11259 8674l-151-11-34-45-33 57-391 8c-46-1-26-2-51-19 32-7 37 0 66-25h-258c-28 6-26 10-37 17 93 53 169-60 205 49 97 5 633-12 684-31z"/>
 <path class="fil0" d="m881 9678c55 21 864-21 913-50-84-13-869 29-913 50z"/>
 <path class="fil0" d="m5504 8972c-23-22 22-34-86-30l-286 15c-97 6-278-5-337 28 49 34-59 3 35 16 17 2 34-2 50-3 171-16 508-9 624-26z"/>
 <path class="fil0" d="m930 9466l783-38c84-15 16 5 50-25-295-1-475 32-752 30-61 0-52 4-81 33z"/>
 <path class="fil0" d="m11212 9055c35 24 204 11 297 9 95-3 243 7 314-24-35-34 17-18-62-21-19 0-66 0-86 1l-316 19c-91-3-93-26-147 16z"/>
 <path class="fil0" d="m2030 9341c4 2 12 6 10 7l714-17c-34-36 74-35-157-28l-533 23c-34 6-14 2-34 15z"/>
 <path class="fil0" d="m10652 9741l8 228c129 1 155-211-8-228z"/>
 <path class="fil0" d="m12874 8868c31 25-64 21 69 21l172-14c85-7 361 21 429-26-3-2-3-7-10-8l-295 5c-65 6-115 1-178 3-37 1-64 5-101 6-65 1-35-13-86 13z"/>
 <path class="fil0" d="m10558 9718c-4 76-10 198 35 261 75-21 47-20 47-108 0-140-1-133-82-153z"/>
 <path class="fil0" d="m11259 8674c87 7 159 19 220-25l-100-29c-50-28-34-15-138-18-24-32 17-9-33-30l-49 49c-3 3-9 7-12 9-2 2-8 6-12 9 154-5 116-9 124 35z"/>
 <path class="fil0" d="m4631 8935c-74-45-208-1-299-1-89 0-247-20-314 19l308 8c82-6 260 1 305-26z"/>
 <path class="fil0" d="m13079 9002c84 2 163-9 249-13 100-4 203 10 254-23-27-17 38-23-120-16l-334 17c-56 13-35 17-49 35z"/>
 <path class="fil0" d="m12484 8745c106-19 489-23 628-26l17-35c-43 1-34 9-85 11-69 4-128 2-200 6-106 7-274-31-360 44z"/>
 <path class="fil0" d="m14427 8463c-8-50-15-27-81-20-196 22-261-39-343 46 81 3 373 4 424-26z"/>
 <path class="fil0" d="m2032 9743l933-36c24-2 39-2 61-7l-942 14c-74 13-35 13-52 29z"/>
 <path class="fil0" d="m-1550 9800c32 18-52 35 108 4-20 40-15 13-61 33l200-4c-67-38-25-14-117-9l250-32c-22-27 40-27-62-22l-210 7c-54 3-62-2-108 23z"/>
 <path class="fil0" d="m11674 8824c54 1 111 6 160 6 33 1 90-10 142-10 40 0 239-17 262-29-74-13-231-6-311 2-76 7-96-10-185 4l-68 27z"/>
 <path class="fil0" d="m11778 8753c29 21 497 4 532-2 44-8 13-2 37-16-18-8 14-8-41-10-10-1-33 1-55 3-51 5-104 6-158 5-60 0-110 1-168 4-60 4-110-6-147 16z"/>
 <path class="fil0" d="m4332 8986c-78-1-418 15-465 48l412-16c94-2 75 12 128-16-12-5 3-15-75-16z"/>
 <path class="fil0" d="m12472 8785c54 36 377 1 402-18-13-8-6-20-79-15l-273 13c-6 1-10 1-16 2l-34 18z"/>
 <path class="fil0" d="m10511 10680c38 27 24 15 20 43-5 32-11-12-3 20l117 3c28-53 13-33 72-64 3-1 8-4 12-7-69-39-145-18-218 5z"/>
 <path class="fil0" d="m6395 8990c-51-22-469-8-523 9 60 33 473 1 523-9z"/>
 <path class="fil0" d="m12445 9002l20 16c23 7 16 6 44 9 64 5 189 7 242-26l-74-23c-69-3-198 0-232 24z"/>
 <path class="fil0" d="m9337 8943c-80 8 54-13-27 4-3 1-12 5-10 5 2 1-6 5-9 7 42 14 80 6 131 5 128-2 100 21 154-23-14-6-4-8-37-11-2 0-58 4-60 4l10-50-146 17 87 37c-26 2-69 2-93 5z"/>
 <path class="fil0" d="m13274 9034c49 31 271 37 317-17-89-14-248-23-317 17z"/>
 <path class="fil0" d="m13455 8771c51-33 21-23 41-45l-294 16c-26 11-11 8-25 24l274-6c-23 21-3 14-40 26-8 3-29 3-51 10 54 37-2 6 70 5 76-1-12 28 82 3l-57-33z"/>
 <path class="fil0" d="m11174 8840c66 6 280 22 335-20-39-15-112-20-168-16-54 4-125 4-167 36z"/>
 <path class="fil0" d="m11292 8988c27 17-8 11 33 13l116 4c29 1 72-3 102-4 60-2 42 7 84-14-36-32 59-25-67-20l-185 3c-85 0-65 5-83 18z"/>
 <path class="fil0" d="m14391 9599c61 33 115 12 225 7 66-4 52-1 81-24-3-2-4-6-10-7l-47-5c-114 2-200-10-249 29z"/>
 <path class="fil0" d="m6879 9214c-23-17 38-8-42-16l-186 7c-119 12-120-23-176 21 61 11 358 10 404-12z"/>
 <path class="fil0" d="m2793 9356c45 25 262 16 320 1 33-8 14-4 32-18-95-6-278-15-352 17z"/>
 <path class="fil0" d="m12386 8617c18 13-1 5 39 21 20 8 13 3 37 13-69 35-60-9-119 37 23 9 141 13 196 8-15-58 18-15-48-45l55-37-160 3z"/>
 <path class="fil0" d="m-868 9899c16 14 16 25 93 16 50-6 41-13 101-16 71-4 159 8 225-13 3 0 7-3 11-5-37-14-381-5-430 18z"/>
 <path class="fil0" d="m10355 8873c80 5 272 13 345-28-122-19-195 2-278 3-58 1-29-22-67 25z"/>
 <path class="fil0" d="m2222 9616c60 15 149 2 219-3 52-4 164 1 204-22-28-12-402-5-423 25z"/>
 <path class="fil0" d="m4934 9287c3 0 8 0 11 1l257-2c94-10 17 3 47-18-33-12-466 4-495 17 57 36 58-4 180 2z"/>
 <path class="fil0" d="m6562 9291s37-4 42-4l282-8c31-5 18-7 30-15-51-22-134-4-196-3-59 2-152-7-204 21 4 1 9 4 11 4l35 5z"/>
 <path class="fil0" d="m5307 9043c-33-33 55-39-174-28l-167 20c24 16 15 19 83 18 91-3 151-26 258-10z"/>
 <path class="fil0" d="m7584 9597c41 33 142 37 176 16-1-2-4-84-130-44-70 22-18 5-46 28z"/>
 <path class="fil0" d="m4232 9070c-52-23-278-21-340 20 87-4 276 15 340-20z"/>
 <path class="fil0" d="m2758 9306c22 13-6 11 40 16 0 1 43 0 47 0l265-33c-12-8 1-11-31-13l-131 7c-66 1-141-3-190 23z"/>
 <path class="fil0" d="m5897 9183c-33-17-332-14-379 17 20 10 336 7 379-17z"/>
 <path class="fil0" d="m-344 9798c100 7 238 6 306-32-86-2-234-23-306 32z"/>
 <path class="fil0" d="m4767 8982c-83-8-264-15-336 21 62 2 123 4 185 4 205 2 120-2 151-25z"/>
 <path class="fil0" d="m11178 10658c41 25 228 24 269-1-37-31 78-24-135-15l-100-5c-40 8-15 5-34 21z"/>
 <path class="fil0" d="m10635 8809c79 1 215 11 273-21-28-20 46-23-66-15l-128 3c-65 4-65 21-79 33z"/>
 <path class="fil0" d="m-1272 9833c28 16 300 4 366-3 85-10-44 14 26-4 3-1 7-4 9-5s6-4 8-6l-362 1c-76 9-15-4-47 17z"/>
 <path class="fil0" d="m12026 8583c-55 1-91-11-123 19 51 27-10-11 69 16l27 15c-64 4-65-8-104 20l183-1-52-69z"/>
 <path class="fil0" d="m4834 9035c-107-4-291 1-381 27 71 5 141 5 213 3 40-1 44-3 85-7 69-7 45 4 83-23z"/>
 <path class="fil0" d="m10509 9541c-61 6-74 1-62 56 13 60 26 54 78 60 4-71 12-62-16-116z"/>
 <path class="fil0" d="m4378 9370c-18-16 44-21-95-16-80 3-252-3-302 36l397-20z"/>
 <path class="fil0" d="m11426 10540c43 25 115 29 171 20 24-4 8 0 29-7l22-13c-48-36-167-34-222 0z"/>
 <path class="fil0" d="m9168 9076c-42-32-165-23-190-15-37 11-31 17-51 34 73-2 192 15 241-19z"/>
 <path class="fil0" d="m8562 8726c37 22-38-18 28 11 41 18 18 8 37 20-72 2-61-12-109 20 45 31 79 6 212 1-13-14 17-20-85-19l-8-55-75 22z"/>
 <path class="fil0" d="m1854 9634c75 13 256 8 305-23-85-8-253-14-305 23z"/>
 <path class="fil0" d="m11930 8698l328 2c30-6 18-6 32-15-31-12-300-22-360 13z"/>
 <path class="fil0" d="m-4850 9507c111-14 28-26 77-136-63-2-72-4-71 46 1 35 24-36-6 90z"/>
 <path class="fil0" d="m10632 8966l242 2c80-13 32-8 52-34-106 3-208-3-294 32z"/>
 <path class="fil0" d="m11675 8588v-25c-5-7 8-6-38-14l6 76 206-15c-30-27-8-26-77-21-22 1-54 2-97-1z"/>
 <path class="fil0" d="m1250 9493c38 17 258 10 323-17-30 0-238-22-323 17z"/>
 <path class="fil0" d="m-4461 10350c22 71 85 189 152 90-18-12-4-7-36-18-27-10-16 4-49-16-20-13-19-32-67-56z"/>
 <path class="fil0" d="m13000 8650l59 19c23 0 61-2 84-5l100-14c32-8 18-5 36-16-81 2-210-18-279 16z"/>
 <path class="fil0" d="m11456 8773c47 12 86 4 144 7 47 3 106-1 143-29-58-3-237-10-287 22z"/>
 <path class="fil0" d="m9222 8898c-81-4-202-15-247 11 13 13-24 33 131 17 47-4 82-15 116-28z"/>
 <path class="fil0" d="m2369 9441c44 18 254 2 289-17-47-23-73-5-128-3-98 5-116-17-161 20z"/>
 <path class="fil0" d="m1700 9756l264-10c61-20 4 2 34-19-87-1-252-20-298 29z"/>
 <path class="fil0" d="m10878 8883l1-32c-22 21-24 18-37 54 91-12 234 24 293-26l-257 4z"/>
 <path class="fil0" d="m10343 8806l31 15h15c52 1 143 2 180-16-37-28-130-21-182-16-40 3-29 2-44 17z"/>
 <path class="fil0" d="m9604 8748l200-8c-44-51-162-33-166-31-66 21-5-11-34 39z"/>
 <path class="fil0" d="m10342 8587l-69 7c-18-61 22-28-61-46v80l111-7 19-34z"/>
 <path class="fil0" d="m9697 10661c28 19 92 16 130 8 51-10 22 1 50-29-50-19-29-14-90-8-103 10-69 8-90 29z"/>
 <path class="fil0" d="m10919 8588c9 5 8 11 38 15 61 9 127 9 158-34-61-6-127-8-184 12-4 1-8 5-12 7z"/>
 <path class="fil0" d="m6430 9048c-41-30-52-14-145-9-47 2-106-4-145 10 22 20-43 18 60 17l230-18z"/>
 <path class="fil0" d="m12575 8885c16 13-5 28 101 17 56-5 56-3 97-30-59-9-146-17-198 13z"/>
 <path class="fil0" d="m-1171 9916c19 13-33 18 44 15l213-24c-67-19-207-21-257 9z"/>
 <path class="fil0" d="m10722 9076c78 17 167 13 232-19l-180-6c-78 13-25 2-52 25z"/>
 <path class="fil0" d="m9930 10594c41 36 120 19 163-1-12-10-17-48-132-16-31 9-16 5-31 17z"/>
 <path class="fil0" d="m5662 9006c-58-8-120-9-179-6-101 6-118 10-151 38l330-32z"/>
 <path class="fil0" d="m12559 8618c4 3-15 33 118 21 72-7 72-15 100-39l-218 18z"/>
 <path class="fil0" d="m5414 9071c-62-3-66 3-122 10l-294 22c68 3 360 10 416-32z"/>
 <path class="fil0" d="m7132 9681c40 31-52 20 55 25 116 6 49-7 74-25-38-25 53-20-57-23-55-2-51 10-72 23z"/>
 <path class="fil0" d="m10042 9040c46 30 108 18 157 8-1-1-49-82-157-8z"/>
 <path class="fil0" d="m11649 10590c46 22 115 32 164 0-48-44-128-26-164 0z"/>
 <path class="fil0" d="m-4264 9267c-43 8-23 12-23 57 0 69-20 59 36 75 14-54 18-82-13-132z"/>
 <path class="fil0" d="m8788 8926c-53-29-137-27-180 1 43 31 134 22 180-1z"/>
 <path class="fil0" d="m13268 8700c50 27 151 16 199-25-61 2-159-5-199 25z"/>
 <path class="fil0" d="m14047 10585c47 25 35 11 88 6 11-2 63-2 65-3 63-10 32-8 51-22-38-3-64-3-102-3-127 0-86 10-102 22z"/>
 <path class="fil0" d="m5656 9066c42 23 93 14 145 12 159-6 100-15 108-30l-253 18z"/>
 <path class="fil0" d="m10092 10643c21 15 3 25 76 14 138-22 43 4 71-36-93-10-110-12-147 22z"/>
 <path class="fil0" d="m-5115 9275c-78 85-22 93-16 100 34-18 26 16 40-36 17-66-16-55-24-64z"/>
 <path class="fil0" d="m12945 8817c63 29 125 18 194-9-65-15-145-18-194 9z"/>
 <path class="fil0" d="m14215 10635c61 8 104 14 159-17-51-34-117-29-159 17z"/>
 <path class="fil0" d="m10753 10675c12 6 9 13 41 14l141-7c-35-31-82-37-141-25-32 7-24 9-41 18z"/>
 <path class="fil0" d="m1785 9481c60-7 165-3 207-32-38-2-75-2-113-2-84 0-66-16-94 34z"/>
 <path class="fil0" d="m11180 8888c37 17 165 19 220-25l-176 10c-39 7-24 4-44 15z"/>
 <path class="fil0" d="m10477 8757l332-19c-41-20-292-11-332 19z"/>
 <path class="fil0" d="m11297 8713c28 24 137 23 170 17 93-16 31-4 59-26l-229 9z"/>
 <path class="fil0" d="m-3351 9563c46 21 119 26 174-10-45-29-105-9-174 10z"/>
 <path class="fil0" d="m14448 9549l165-17c-34-53 1-22-83-20-68 3-55-24-82 37z"/>
 <path class="fil0" d="m13075 9051c54 30 103 27 155-21l-119-2c-36 10-20 9-36 23z"/>
 <path class="fil0" d="m10847 8655c53-7 148-1 179-17-10-5-7-9-35-13-130-19-128 3-144 30z"/>
 <path class="fil0" d="m-4315 8735c3 4-11 26 36 39 39 10 33-1 56-9-24-53-11-75-92-30z"/>
 <path class="fil0" d="m9283 9089c61-11 45-22 55-30-49-30-87-18-126 17 26 16 23 22 71 13z"/>
 <path class="fil0" d="m-5089 9339c73-4 69 0 72-71-81 8-66 2-72 71z"/>
 <path class="fil0" d="m9942 8873c54 33 117 22 158-10-76-16-98-14-158 10z"/>
 <path class="fil0" d="m11072 10639c-11 26 0 1-11 35s2 5-18 52l120-68-91-19z"/>
 <path class="fil0" d="m-1600 9775c-36 36-36-56-32 87l73-30c-27-44-7-20-41-57z"/>
 <path class="fil0" d="m-4599 9441l75-7c-9-42 12-61-38-60-32 1-32 35-37 67z"/>
 <path class="fil0" d="m2714 9543l213-17c-3-5-4-8-8-8-20-2-62-23-157 2-41 10-25 4-48 23z"/>
 <path class="fil0" d="m12727 8652c3 6-2 53 109 27 51-12 35-15 49-24l-158-3z"/>
 <path class="fil0" d="m4232 9319c-42-19-168-28-211 1 41 21 149 0 211-1z"/>
 <path class="fil0" d="m10928 8738c43 22 27 7 81 6 142-2 70 4 99-22-64-3-141-9-180 16z"/>
 <path class="fil0" d="m11325 8771c11 7-24 23 50 22 108-1 10 10 56-23-34-19 55-21-56-17-79 2-30 6-50 18z"/>
 <path class="fil0" d="m6614 8981c-45-26-102-12-147-2 41 30 104 33 147 2z"/>
 <path class="fil0" d="m8690 8863c34 15 11 32 71 25 98-13 50-9 70-38l-141 13z"/>
 <path class="fil0" d="m12674 8835c92 50 121-17 121-18-171-7-97 0-121 18z"/>
 <path class="fil0" d="m7100 9264c-34-16-93-29-144 0 41 27 104 21 144 0z"/>
 <path class="fil0" d="m-4731 9337c-53 33-26 2-35 69 53-7 24 17 54-17 37-44-13-45-19-52z"/>
 <path class="fil0" d="m12130 8635c16 13-11 21 79 16l79-16c-41-19-125-19-158 0z"/>
 <path class="fil0" d="m4518 9288c-35 7-13 3-29 15 42 18 135 13 180-17l-151 2z"/>
 <path class="fil0" d="m4132 9437c-40-23-118-19-162 0 31 30-25 9 30 18l132-18z"/>
 <path class="fil0" d="m-4680 9356c4 3 3 42 45 16 33-21 15-8 25-57-70 10-46-12-70 41z"/>
 <path class="fil0" d="m7971 8895c14 11-31 19 35 22 112 3 20 3 58-23-98-51-87-4-93 1z"/>
 <path class="fil0" d="m9912 10644c26 23-38 20 34 22 91 3 29-5 50-22 0 0-4-63-84 0z"/>
 <path class="fil0" d="m9521 8891c55 33 79 33 120-17-85 0-77-12-120 17z"/>
 <path class="fil0" d="m-4386 9491c60-6 65-8 71-68-58 5-58 10-71 68z"/>
 <path class="fil0" d="m-4667 8839c10 86-23 44 52 60 23-58 15-58-52-60z"/>
 <path class="fil0" d="m12809 8842l120-11c-16-13-25-26-57-30-56-5-48 18-63 41z"/>
 <path class="fil0" d="m5326 9201c-51-23-110-12-140 13 59 7 106 17 140-13z"/>
 <path class="fil0" d="m10628 8906c39 18 129 7 163-14-64-4-120-15-163 14z"/>
 <path class="fil0" d="m11060 8788l128 7c-8-14 23-30-63-29-86 2-57 15-65 22z"/>
 <path class="fil0" d="m11037 9074c82-4 79 10 127-19-27-13-53-41-127 19z"/>
 <path class="fil0" d="m-4881 9208c-26 13-19-15-28 21-20 75 8 43 11 51 40-25 54-12 17-72z"/>
 <path class="fil0" d="m11608 8654l-83-3c22 19-1 5 34 23l26 11c3 1 8 4 12 6l58 29c-22-52-28-8-47-66z"/>
 <path class="fil0" d="m13326 8650c161 5 90 5 116-17-60-32-79-12-116 17z"/>
 <path class="fil0" d="m-4756 9260l3 65c51-20 48-1 49-63l-52-2z"/>
 <path class="fil0" d="m2703 9423c55 24 74 10 120-9-29-7-27-11-60-11-64 1-42 6-60 20z"/>
 <path class="fil0" d="m-4921 9378c68-13 45 20 63-65-67 22-43-7-63 65z"/>
 <path class="fil0" d="m12560 8835c6 4-6 51 85 0-33-25 51-18-36-19-54-1-43 15-49 19z"/>
 <path class="fil0" d="m-4745 9155c0 1-22-11-16 36 11 70-3 18 30 36 4-8 54 0-14-72z"/>
 <path class="fil0" d="m-4756 9482c51 2 52-4 52-55-52 0-57 2-52 55z"/>
 <path class="fil0" d="m-5074 9371c-24 88-15 37 27 63 49-111-9-42-27-63z"/>
 <path class="fil0" d="m-4677 9242c2 63 3 74 59 30-18-37 27-10-22-30-12-5-31-1-37 0z"/>
 <path class="fil0" d="m12715 10655c23 12-31 13 35 15 79 2 32-5 49-16-31-19 31-16-37-18-90-2-22 0-47 19z"/>
 <path class="fil0" d="m-22 9941c-15-17-35 13-3-37l-31 62c62-1 91 9 131-18l-97-7z"/>
 <path class="fil0" d="m-3787 9036c26 22-12 26 36 21 59-7 22-11 36-21-8-7 21-25-33-20-46 5-15 0-39 20z"/>
 <path class="fil0" d="m8989 8794c-42 0-35 8-49 15 0 0 2 41 98 0-26-17 38-16-49-15z"/>
 <path class="fil0" d="m-4661 9144c-16 30-16 13-20 66 43-12 42 29 48-32 2-18-15-30-28-34z"/>
 <path class="fil0" d="m11162 8732c136 19 78 2 101-11-20-9 33-18-47-11-45 4-34 8-54 22z"/>
 <path class="fil0" d="m6201 9183c90 0 75-3 99-18-15-11-11-21-56-11-85 18-8-5-43 29z"/>
 <path class="fil0" d="m-4689 9465c63-14 51 10 71-55-58 4-45 4-71 55z"/>
 <path class="fil0" d="m8891 8809s-46-26-93-9c-35 14-13 8-37 30l130-21z"/>
 <path class="fil0" d="m-4447 9388c14 10-24 28 33 15 42-10 9 9 31-31-43-21-36-30-64 16z"/>
 <path class="fil0" d="m14349 8530c63 43 77-12 82-16-45-17-54-8-82 16z"/>
 <path class="fil0" d="m9611 8941c35 25 51 26 90 0-41-27-54-25-90 0z"/>
 <path class="fil0" d="m-4564 9141c-44 17-60-3-17 61 40-26 37-14 17-61z"/>
 <path class="fil0" d="m-4964 9240c-51 78-5 62 0 69 8-12 23 26 17-36-3-40-3-15-17-33z"/>
 <path class="fil0" d="m-4798 9194c-52 21-43 18-16 61 29-21 46-8 16-61z"/>
 <path class="fil0" d="m-4330 9257c-39 23-17-23-38 53 67-6 66 10 38-53z"/>
 <path class="fil0" d="m-4588 9318c-9 98 39 26 48 21-22-34 43-3-17-22-74-24 5-17-31 1z"/>
 <path class="fil0" d="m-53 9715l47 62c12-63-2-9 27-58l-74-4z"/>
 <path class="fil0" d="m-184 9877l124-7c-42-30-90-24-124 7z"/>
 <path class="fil0" d="m-4516 9284c16 81 34 76 49 5l-49-5z"/>
 <path class="fil0" d="m14631 9532c46 21 30 16 79-6-5-3-29-17-35-16-90 1-18-3-44 22z"/>
 <path class="fil0" d="m4356 10789c42 19 72 15 109-1-35-18-72-15-109 1z"/>
 <path class="fil0" d="m-4518 9429c61-19 24 6 50-53-70 23-40-35-50 53z"/>
 <path class="fil0" d="m11807 8689c21 15-32 13 43 23 42 6 26-3 41-9-28-20-20-18-84-14z"/>
 <path class="fil0" d="m-4840 9343c47-15 36 13 54-47-55 0-28-22-54 47z"/>
 <path class="fil0" d="m5069 9218c72 29 83-17 85-18-58-2-54-5-85 18z"/>
 <path class="fil0" d="m-4342 9345c-41 48-35 26 12 48 1-1 50-32-12-48z"/>
 <path class="fil0" d="m10786 10558c51 41 36 20 64 0-61-31-47-29-64 0z"/>
 <path class="fil0" d="m-4409 9269c-51 38-55 43 16 55l-16-55z"/>
 <path class="fil0" d="m4899 9054c62 7 16-5 31-19-45-27-35-14-61 0 21 19-13 14 30 19z"/>
 <path class="fil0" d="m12143 10622c34 23-47 24 35 16 59-5 9 0 30-16-43-27-26-23-65 0z"/>
 <path class="fil0" d="m3136 9289c43 27 37 23 75 0-35-20-36-24-75 0z"/>
 <path class="fil0" d="m-4570 9221c-5 4-17-1-19 22-3 31 1 15 9 33 63-35 32-17 10-55z"/>
 <path class="fil0" d="m-4312 9123c10 54-14 34 41 45-2-57 19-34-41-45z"/>
 <path class="fil0" d="m2552 9535c33 17 31 24 89 5-30-19-41-23-89-5z"/>
 <path class="fil0" d="m4899 9233c61 4 25-9 34-15-46-24-33-15-71 0 11 7 2 13 37 15z"/>
 <path class="fil0" d="m12448 8835c17 14-26 21 30 16 70-6 2 5 33-16-24-14 5-33-63 0z"/>
 <path class="fil0" d="m10582 10626c82 66 46 5 55 0-4-3-6-9-13-9-32 0-24-13-42 9z"/>
 <path class="fil0" d="m2957 9406l113 5c-34-28-78-26-113-5z"/>
 <path class="fil0" d="m11700 8703c1 0-1 32 60 0-7-4 3-47-60 0z"/>
 <path class="fil0" d="m4108 9137c-12-10 18-19-59-14-45 4-26 6-40 18l99-4z"/>
 <path class="fil0" d="m4533 9136c43-16 32-11 59-11-60-77-59 10-59 11z"/>
 <path class="fil0" d="m-4364 9115c-1 2-47-22 0 50 47-67 3-44 0-50z"/>
 <path class="fil0" d="m8803 8771c88 0-26 23 23-16-68-49-54 4-55 4 21 15-4 11 32 12z"/>
 <path class="fil0" d="m-4497 9205c-13 20-17-29-17 52 31-21 63 15 17-52z"/>
 <path class="fil0" d="m-4515 9122c-11 41-12 31 13 61 9-20 27-56-13-61z"/>
 <path class="fil0" d="m-4448 9246c65-16 25 13 49-41-57 11-26-25-49 41z"/>
 <path class="fil0" d="m-5115 9253c29-20 20-5 30-44-51 3-53-3-30 44z"/>
 <path class="fil0" d="m2219 9435c0 6 35 46 87 6l-87-6z"/>
 <path class="fil0" d="m10289 8923c1 0-3 18 39 9 44-10 28-10 51-29l-90 20z"/>
 <path class="fil0" d="m12901 8671c110-6 21 3 53-21-49-23-26-24-53 21z"/>
 <path class="fil0" d="m2767 9590c44 19 42 13 70-8-10-2 0-7-26-5-61 4-31 5-44 13z"/>
 <path class="fil0" d="m6371 9152c-43 2-25 10-30 21l71-8c-23-17 44-16-41-13z"/>
 <path class="fil0" d="m13024 8595c16 12-11 39 54 5-6-4 5-31-54-5z"/>
 <path class="fil0" d="m7747 8932c60 20 20 16 60-4-4-3-4-10-11-10-39 0-22-13-49 14z"/>
 <path class="fil0" d="m6686 9046c26-7 18-7 30-15-66-30-40-4-58 17 6-1 24-2 28-2z"/>
 <path class="fil0" d="m12379 8832c34 31-44 15 18 14 38-1 0 8 28-11-3-2-2-49-46-3z"/>
 <path class="fil0" d="m14389 9555c50-18 24 4 40-37-48 18-35-41-40 37z"/>
 <path class="fil0" d="m11557 8820c3 2 13 6 10 6 0 0 6 13 43-6-3-2 14-43-53 0z"/>
 <path class="fil0" d="m-4431 9116l-14 23c4 40-6 7 15 32 2-3 12-8 8-10-4-1 5-8 5-10-3-31-1-15-14-35z"/>
 <path class="fil0" d="m7582 10037c2 11-5 59 50 27l-50-27z"/>
 <path class="fil0" d="m3198 9623c53 39 40 4 48 0-39-20-19-21-48 0z"/>
 <path class="fil0" d="m8488 8795c-17-53 13-19-42-44 31 60-12 27 42 44z"/>
 <path class="fil0" d="m11080 8838c40 20 23 14 54-5-48-21-28-17-54 5z"/>
 <path class="fil0" d="m14326 9549l43 3c-23-30-8-73-43-3z"/>
 <path class="fil0" d="m14351 8593c54-1 15 17 36-38-39 26-34-8-36 38z"/>
 <path class="fil0" d="m-4347 9192c-43 48-21 19 0 43 22-33 20-11 0-43z"/>
 <path class="fil0" d="m12313 8635c46 25 20 12 47 0-6-3-4-37-47 0z"/>
 <path class="fil0" d="m8894 8766c5-1 6-5 9-7-44-38-31-11-48 0 38 23 17 7 39 7z"/>
 <path class="fil0" d="m-4290 9205c44 35 16 16 38-1-14-8-4-48-38 1z"/>
 <path class="fil0" d="m-5060 9206c45 34 15 18 40 0-22-18-10-39-40 0z"/>
 <path class="fil0" d="m12982 8767l60 4c-8-9 18-21-32-17-37 3-13 0-28 13z"/>
 <path class="fil0" d="m14464 9285c-4 27-9 51 10 72 1-13 6-21 2-41-6-37-3-16-12-31z"/>
 <path class="fil0" d="m9895 8669l43 11c0-8 31-56-43-11z"/>
 <path class="fil0" d="m12579 8665c12 9-8 34 40 3-4-3 1-34-40-3z"/>
 <path class="fil0" d="m10560 8605c6 5-37 39 44 0-3-2-4-6-9-6-24 0-13-17-35 6z"/>
 <path class="fil0" d="m8987 8722c-19-37 25-17-44-31 1 1-11 17 44 31z"/>
 <path class="fil0" d="m4381 9076l43-7c-43-48-38-3-43 7z"/>
 <path class="fil0" d="m6928 8978c15-50-25-2-26 5-2 23 20 15 26-5z"/>
 <path class="fil0" d="m10978 10659c-49 2-14 24-2 21 20-5 35-22 2-21z"/>
 <path class="fil0" d="m4029 10756l53 7c-2-8-9-43-53-7z"/>
 <path class="fil0" d="m11120 10712c70 29 39-3 41-4-25-10-21-14-41 4z"/>
 <path class="fil0" d="m-4846 9139c31 16-3 26 43 0-30-27 49-19-17-13-30 4-10-6-26 13z"/>
 <path class="fil0" d="m4480 9236c-8-5 20-38-40-3 33 20 6 19 40 3z"/>
 <path class="fil0" d="m5835 9017c-19-50-3-31-33-18 25 22-42 20 33 18z"/>
 <path class="fil0" d="m11807 8653l33 6c-3-8-17-64-33-6z"/>
 <path class="fil0" d="m5484 9134c-17-44-21-8-32 0 20 11-5 24 32 0z"/>
 <path class="fil0" d="m14116 10622c-28-1-17 23 1 20 31-6 25-20-1-20z"/>
 <path class="fil0" d="m10393 8607c50 27 29 6 41-1-22-12-21-17-41 1z"/>
 <path class="fil0" d="m14648 9452c-43-4-2 20 1 19 30-4 34-16-1-19z"/>
 <path class="fil0" d="m13011 8974c-8 0-48 31 0 21 32-7 9-21 0-21z"/>
 <path class="fil0" d="m12653 8567c4 2 13 6 10 6l28-6c-12-9-7-45-38 0z"/>
 <path class="fil0" d="m3284 9618c2 6-21 48 40 4l-40-4z"/>
 <path class="fil0" d="m-4077 10513c-20-1-21 13 4 19 49 11 9-19-4-19z"/>
 <path class="fil0" d="m-1553 9883l42 8c-2-9 4-43-42-8z"/>
 <path class="fil0" d="m4273 9054c28 27 8 36 51 10l-51-10z"/>
 <path class="fil0" d="m2714 9579c-41-1-18 20 0 18 30-5 17-18 0-18z"/>
 <path class="fil0" d="m10323 8693c-37 0-13 21 1 18 20-4 36-18-1-18z"/>
 <path class="fil0" d="m13179 8616l30-28c-47 3-38-39-30 28z"/>
 <path class="fil0" d="m-4245 9137c26 57 0 13 36 32-17-50-1-9-36-32z"/>
 <path class="fil0" d="m-4965 9155l-6 44c41-13 7-44 6-44z"/>
 <path class="fil0" d="m4980 9210l-31 8c66 40 30 1 31-8z"/>
 <path class="fil0" d="m14347 9401c-19 1-21 25-1 20 16-5 32-22 1-20z"/>
 <path class="fil0" d="m7144 9268l37-4c-37-40-28-7-37 4z"/>
 <path class="fil0" d="m6483 9165c-21-17-14-25-50 4l50-4z"/>
 <path class="fil0" d="m-1122 10816c-28 36-34-56-8 29 1 2 6 6 8 10 25-35 30 52 11-20l-11-19z"/>
 <path class="fil0" d="m6318 9091c-2 0-52 10 0 15 37 4 11-16 0-15z"/>
 <path class="fil0" d="m10926 8838l53 16c-13-11-1-15-30-21-22-4-12 0-23 5z"/>
 <path class="fil0" d="m10342 8587c31-18 28-4 14-36-14 17-8 2-14 36z"/>
 <path class="fil0" d="m-4893 9146c-1 0-54 41-5 21 26-11 12-22 5-21z"/>
 <path class="fil0" d="m4549 9224c-18 0-19 12 2 16 14 3 33-17-2-16z"/>
 <path class="fil0" d="m11283 10708l39 6c-22-23-13-37-39-6z"/>
 <path class="fil0" d="m7053 9137c-41 13-38 19-6 18 25-1 6-18 6-18z"/>
 <path class="fil0" d="m4331 9303c24 13 24 17 53-6l-53 6z"/>
 <path class="fil0" d="m7049 9208c44 4-14 12 19-16l-44 5c18 14-8 8 25 11z"/>
 <path class="fil0" d="m3193 9327c6 34-25 18 35 25l-35-25z"/>
 <path class="fil0" d="m3951 10807c54 27 25 12 50 0h-50z"/>
 <path class="fil0" d="m7136 9197h52c-21-17-26-15-52 0z"/>
 <path class="fil0" d="m10411 10768c-9 1-37 26-2 17 21-5 12-17 2-17z"/>
 <path class="fil0" d="m4031 9270c68-13 32 3 50-26l-50 26z"/>
 <path class="fil0" d="m8970 8859c-31-35-24-7-36 0h36z"/>
 <path class="fil0" d="m14531 9452l-6 25c0 1 4 5 6 7 15-18 30 15 0-32z"/>
 <path class="fil0" d="m11250 8763c43 39 29 13 37 8l-37-8z"/>
 <path class="fil0" d="m12655 8668l35 5c-3-8-3-14-8-14-66 3-23-37-27 9z"/>
 <path class="fil0" d="m14195 8566c-12 18-17 11 0 32 2-3 5-6 5-7v-16c4-1-3-5-5-9z"/>
 <path class="fil0" d="m14386 9483c53-13 29 9 35-25l-35 25z"/>
 <path class="fil0" d="m14623 9420c51-18 28 5 31-29l-31 29z"/>
 <path class="fil0" d="m14451 9463c19 19-30 28 24 10 1-1 5-6 8-8l-32-2z"/>
 <path class="fil0" d="m14531 9400c-25-6-2 8 0 11 1 1 4 6 4 6 10-1 29-9-4-17z"/>
 <path class="fil0" d="m-4478 10263c-37 52-7 17 0 33v-33z"/>
 <path class="fil0" d="m14395 9394l19 38c5-7 11-13 7-14l-26-24z"/>
 <path class="fil0" d="m936 9504c45 28 10 20 33 2l-33-2z"/>
 <path class="fil0" d="m10377 8756l31 7c-10-24-32-9-31-7z"/>
 <path class="fil0" d="m11057 8472l-29-29c9 30-1 16 29 29z"/>
 <path class="fil0" d="m14347 9332c-2 3-4 8-7 9s-4 8-3 9l10-18z"/>
 <path class="fil0" d="m13995 8398l10 17c0-1-6-8-3-9s-5-5-7-8z"/>
 <line class="fil0" x1="8906" x2="8906" y1="8855" y2="8855"/>
 <line class="fil0" x1="10241" x2="10241" y1="8802" y2="8802"/>
 <polygon class="fil0" points="6931 9220 6967 9198"/>
 <polygon class="fil0" points="2454 9533 2493 9546"/>
 <path class="fil0" d="m16797 9427c10 0 27 25 1 17-14-5-25-19-1-17zm421 684l-179 114c73-11 123-66 179-114zm359-416c5-1 27 0 6 2l-9-2h3zm-1106 1016l-5-40 5 40zm-224-278s-14-16-39 35c-19 38-5 10-3 36l42-71zm1347-1327c-6 43-3 32 4 79 5 32 6 36 4 75 11-45 0-4 4-42 1-11 4-30 4-33 3-45 2-35-16-79zm126-57c-28-8-3-29-45 12 19-4 23-5 45-12zm-126 57s14-16 1-40c-40-72 4-3-31-15l30 55zm-63 3c7-44 13-64-19-109-3 48-9 56 19 109zm-34-285c30 42 5 43 44-1l-44 1zm-74-81l34 28c-2-63-19-29-34-28zm1-48s31 0 11-6c-10-3-44-12-11 6zm-51-49c-19-23-17-3-10 11 16 26 16-4 10-11zm63-222c0-17-6 11-6 11-1 37 5-4 6-11zm284 625c32 12 5 8 44 3 17-3 39-5 56-9 48-9 110-70 226-49l110 51c-98 72-22-4-116 26-41 13-64 32-114 45-48 12-66 17-114 34-52 18-83 17-129 36 119 66 294 49 435 8 63-18 14-18 70-2-8 70-16 46-74 52l-358 145c176 15 157-44 305-48 95-2 51-37 115 36-191 112-475 115-493 123 144 100 346 38 432 63-36 91-153 115-234 117-92 3-167-40-245-35 78 121 217 115 276 164-85 79-47 12-254-1-33-2-54 3-85 14 82 37 207 93 275 165 74 79 13 6 79 56-73 89-145-21-350-53-14-2-58-10-66-12-56-12-17 22-64-42l-7 52c4 1 17 1 25 2 4 0 27-1 45 3 59 11 214 132 251 177-64 42-85 31-145 16-26-6-47-13-76-23-18-7-12-8-31-13-50-13-21-5-51-4l145 126c-89 113-165-27-324-65l168 196c-44 59-59 47-115 7-46-33-76-79-120-116 15 78 83 137 145 201l-46 44-65-21c-138-68-111-79-219-168 22 27 40 140 50 185 26 123 147 101 36 212-66-22-124-79-160-150-22-46-43-163-61-199 21 205-40 142 39 307 35 74 49 47 2 122-77-70-133-248-159-342-44 50-17 15-13 95 3 49-1 45 9 98 7 34 7 60 22 98 30 73 39 48-19 119-4-3-12-10-11-8 1 0-41-17-67-84-8-21-19-92-25-104-24-44-30-23-46-114-9-46 5-42-28-86l-4 42c-4 117-21 73-27 123-3 23 7 30 5 66-2 47-16 66-10 122 10 93 37 57-30 130-123-90-66-164-59-271-4 0-13-3-12 0l-41-8c-16 61-10 67-61 116-34-41-41-168-39-190l11-71c-30 12 11-74-60 72-65 134-73 217-126 265l-41-17c-21-84 69-196 50-275-110 42-67 101-132 138-23 58-14 33-57 38-44-92 58-93 2-212-80 41-102 184-186 228l-46-18c-3-72 59-136 118-277 63-153 25-64 11-93l-49 56c-17 18-126 101-186 105 0-71 10-71 47-125l-38-25c3-1-7-5-10-8-82 79-98 173-268 146 7-100-1-55 83-113 51-34 56-58 92-92 28-27 41-24 58-42 36-39-13-22 79-106l32-32c-62 6-48 14-92 40-87 52-75 32-130 46-15 4-81 45-105 54-75 28-121 10-121 10 2-1-10-2-15-2 13-92 0-68 82-97 44-16 65-34 98-53 51-29 45-30 87-62 69-52 61-8 67-75-97 46-286 130-403 122 24-85 13-57 100-83 197-58 98-57 282-186-43 12-155 79-210 94-87 24-179 21-249-11 4-158 81-54 203-121 44-25 150-91 191-93-159-16-146 11-310-42l-68-33v-64c101 0 203 9 278-35-65-6-125 4-190-6-76-13-97-15-83-89l291-14c-155-90-329-46-307-190l217 17c-22-23 6-7-43-34-19-10-16-6-34-14-32-13-54-25-80-39-58-33-84-41-100-116 67-5 287 24 342 58 17 11 35 28 38 31 6 5 17 14 21 18l37-43c-89 11-31 15-85-17-8-5-48-31-61-40-187-126-333-102-318-217 93 13-15 19 108 19 112-1 256 51 350 84-15-29-27-48-55-71-173-142-198-68-199-184 85 8 190 114 350 87-57-61-151-86-221-154-61-61-134-163-87-252 87 45 195 236 390 270-9-19-228-227-286-445 109-4 47-11 119 59 113 110 50 138 200 256l-162-362c-40-47-66-36-16-90 58 30 20-6 54 53 77 131 200 269 348 310-21-47-46-69-72-119-24-47-34-63-61-106-29-46-31-76-53-114-50-90-52 18-70-103l129 45c107 69 106 157 136 198 11 15 26 33 37 47 26 31 2 15 36 30-2-36-45-218-65-254-46-79-135-61-172-127 82-67 149-1 288 111 42 33 78 51 108 110 22 43 33 99 59 140 24-67-12-175-39-245-54-144-76-172-12-214 59 42 25 36 40 105 15 73 121 79 153 277l36-23-46-46c-1-1-78-333 56-312l89 331c3-24 21-106 29-149 18-100-21-120 60-146 44 71 6 22 11 83 7 86 28 26 47 248 30-70 32-141 66-217 80-179 63-162 147-166 39 113-10 99-52 173 9 62 18 41 23 114l88-135c45-75 36-85 72-96 125-39-10 215-11 218-22 74-24 160-55 226l-128-17 20-166c-37 151-15 146-103 166 85 7 113 6 179 36-20 19 0 15-36 27-6 1-44 4-50 4-55-3-37-9-83-21-75 55 7 50-140 58 3 7 7 20 13 42-39-22-27-4-42-40-34 2-77 5-131 8-24-27-16-8-34-46-88 53 26-25-22 51-5 10-12 16-19 20-2 5-9 12-3 16-30 28 29 15-43 30-52 10-15-2-36-13 16-24-12-25 11-30l-7-1c27-59-3-21 43-56-58-32-5 6-41-52-70 55-35-4-17 122-12 9-23 16-34 23 23 12 12-24 15 37l-21-33c-52 32-109 56-178 83 24-81-2-26 67-75-57 20-83 44-118 67 6 1 15 2 25 4-20 38-7 22-37 46l-168 166c-18 21-19 12-36 44-55 105 23 72-78 96-3-95 58-114 88-177l-9 4c1-65-8-46 36-78-56-42-32-48-57-58 2 3 22-25 3 32-16 48-9 6-18 32-17 48 19-2-10 61-18 40-40 37-55 75 5-6 9-7 40-22-8 87-6 38-41 101-17 32-29 80-37 102-7-9-31 10-33-15-12 20-31 39-66 58 43 72-46 194 0 277 1-83 33-219 73-279 20 31 45-78-6 94-13 43-11 74-7 123 37-81-10-37 48-62l-15 268c-13-9-21 14-40-38l-4-142c-6 138 2 200 38 308l-19-104c55 15 37 9 60 49 6-8 10-15 17-25l19-19c21 102 22 71 2 106-12 21-23 19-17 67-57-10-30-5-65-14 16 45 17 7 35 81-11-78 19-52 22-56l53 93-15 49c67 40 73 89 96 154-58-9-43-5-72-56-21-35-24-40-29-82l-14 48c-2 4-20 32-22 37 62-10 40-50 123 107-31 18-32 7-60 9-4 56 25 93 77 104-24 118 9 93 18 102 4-11 20-82 20-83 0-35-8-20-25-65 56 24 104 85 167 116 17 29-5 7 22 30 33 28 29-10 63 53-63 4-72-15-120-30 30 49 6 12 120 78l19-27c22-23-3-6 30-20l-2-6c35 0 61 8 91 15-6-8-13-18-20-32l218 38-18-36c106-8 94-15 145 17-21 13 11 14-59 22 0 0-60-3-68-3 93 53 88-6 121 45 9 2 18 4 27 7-44 20-37 5-63 29 0 0-41 59-47 70 13-1 14 37 84-59 40 25 85 18 122-23-1-1-2-3-4-4-52 6-64-43-65-43 38-16 65-19 102-18 71-23 69-18 78 6 10-13 20-23 31-31l53-88 99-30c0 2 5 3 8 7 4-2 8-4 13-6-4-3-10-7-18-13 39-29 30-35 38-57 12-37-9-15 77-72l-2 26c-3 11-5 18-8 28 43-13 27-21 72 4l-48 33h10c70-40 118-80 196-161l-104 96c-49 23-37 2-52-1l134-142c-4 3-13 2-36 8 9-66-14-40 44-44-3 21-3 30-6 34l47-49c17 54 20-5-15 73 37-30 61-51 84-89 92-150 29-59 64-68-19 66-97 180-156 238 88-28 121-168 199-190-23-101 39-119 47-196 61-77 27-80 50-132 27-61 14-4 38-48 13-24-13 10 11-33 30-51 22-20 25-20-22-9-12 10-76 3 4 50 12 31-34 76l-11-31 4-43c8-34 10-49 18-76 4 1 7-1 11 1l35 3c3 0 9 1 13 1l-23-87c-5 28-6 20-23 53-40-86-15-123-48-204 7 77 30 23-13 94-29-78-49-141-54-214 101-76 80-13 76-95-63 17-3 25-62 9 3 54 12 9-13 66-30-22-57-38-45-77 26-82 40 44 24-49-38 15-20 7-54 11-202-246-126-132-135-238-36-22-30-6-65-39-4-4-25-30-27-35-14-31-4-15-3-41 62 22 78 40 135 89-40-70-30-52 56-179l-107 127-90-71c28-65 88-125 128-189 1-2 31-79 66-133-42 42-112 79-141 123-31 47-30 50-72 95l-75 98-161-50c39-63 1-3 29-35 63-70 62-194 222-331l92-93c131 67 153 117 130 161 22-23 44-28 60 7 14 31 2 32-25 112l-43 149c55-46 45-26 96-64 27-77-13-99 91-151 50 56 51 34-29 207-33 74-83 124-115 192 171-141 141-86 207-141 47-39-11-30 66-50 31 69-7 59-68 138-26 35-74 103-89 121l292-170c97 71-189 250-189 250-20 1-43 1-62 2l5 39c162-115 231-53 293-92 58-38 34-56 100-48 8 70-25 75-161 139-67 32-166 83-199 144 45-12 91-43 135-59 61-21 97-10 145-7 166 13 254 10 256 108-69 22-111-47-196-22-38 12-195 109-222 132zm-1478 1291c0 1-1 3-3 16l-8 31c5 1 9 2 13 3-3-4-5-10-9-16 23-18 31-24 40-23h1c-13-4-24-6-34-11zm532 5c2 4 4 7 7 12 0-2 2-7 4-12h-11zm-1812-833l27 6c-1-7 9-47-27-6zm570-63l47 209c-48-61-43-136-47-209zm60-552c-4-4-22-20-7-3l8 5-1-2zm34 1513l36-24-36 24zm403-31s24-1 2 52c-16 41-4 12-26 28l24-80zm31-1905c-31 34-24 24-68 52-30 19-34 21-64 49 28-38 2-2 30-31 9-9 22-25 25-27 34-33 27-26 77-43zm-53-131c29 15 26-19 26 40-11-16-14-19-26-40zm53 131s2-21 32-28c90-21-1-6 37 11l-69 17zm47 48c30-36 42-54 103-63-36 36-38 46-103 63zm259-174c-58 8-39 26-33-32l33 32zm125-3l-50-5c54-42 38-7 50 5zm38-34s-25-22-4-12c11 5 44 24 4 12zm80 3c34-2 16 11-1 14-34 7-10-14 1-14zm133-200c13-12-5 11-5 11-29 27-1-6 5-11zm-856 548l2-3c-3-2-4-6-9-7l-30-24c-2-2-7-6-11-9l90-44c-19 24-12 19-26 54 11-3 20-7 30-10-6 5-12 12-20 20-11 9-19 17-26 23zm674-224l18-1c-3 5-8 10-18 1zm-362 145c19 24-38 32 15 16l-15-16zm40 1591c-17 14-37-8-6 31l6-31zm519 83c20 36 2 18 35 30-17-78 3 25-35-30zm-655-1603c56-10 25 15 40-33l-40 33zm797 1435c-21 27-28-51-11 18l11 19c13-19 40 26 0-37zm-838-1486c-7 11-64-32 0 33l7-23c-1-2-5-6-7-10zm-152 1510l31 51c5-81 7-22-31-51zm-161-322l52 7c-36-37 49-26-23-22-47 3-4-22-29 15zm89 150c14 10-11 31 40 1-27-17 10-43-40-1zm-58-631c-26 1-24 31 1 23 17-6 46-24-1-23zm964 913c63 31 27 4 41 0-16-14 32-49-41 0zm-411-30c-18 24-18 25 0 47 12-18 38 7 0-47zm-603-939c-16 28-20-43-15 35 3 40 2 16 15 38v-73zm1205-709c24 58-5 28 47 41-27-96-7 8-47-41zm-1213 1196c19 8 10 15 44 6-10-10-15-32-22-37 4-1 8-2 13-3 68-22 26-17 45-41l-92 17c4 8-14 36 27 29-4 4-9 13-15 29zm370 430c30 53-19 23 71 48-16-25 6-5-19-22-1-1-42-20-52-26zm530-1718c5 3 16 9 13 9-3 1 4 22 51-9-45-30-48-13-64 0zm-531 135c11 5-5 33 53-2l24-23c-6 1-34 5-38 6-31 11-30 13-39 19zm-445 726c38-19 47 36 26-78-12 17 1-17-11 18-7 21-7 22-15 60zm50-362c-39 32-23-6-35 59 52-17 54-8 35-59zm33 94l-11 16c0 1-4 7-5 9l-33 88c41-33 59-91 49-113zm-66 344s-36 3-14 46c20 40-5 16 42 13l-28-59zm429 709c20 43-4 16 22 42 21 21 7 7 39 27-11-57 15-59-61-69zm752-1572c20 26-11 28 42 42 81 20 36-8 47-16l-89-26zm-1048 653c-37 64-25 40 1 78 18-20 21 21 21-35 0-50-20-41-22-43zm909 929c12 11-19 13 28 16 26 2 32-3 56-9-7-6 6-71-84-7zm-906-1239c60-5 46 9 63-61-65 8-54 1-63 61zm316 1421l71 9c-21-42 11-19-24-38-36-19-27-8-64-10l17 39zm-280-280c-1 46-16 21 14 61 17 24 37 29 54 39-12-64-31-71-68-100zm-182-864l26-102c-24 11-35 12-44 37-36 103 5 49 18 65zm1160-630c-29-18 32-9-36-16-14-1-53 5-59 6 38 46 6 31 83 28-41 84-19 34-4 54l16-72zm-832 1690c74 31 15 33 102 36-23-46-28-46-84-73-21 20-9-3-18 37zm-33-171c-29 66 110 133 143 141-34-70-69-58-143-141zm646 271c26 19-58 34 64 16 52-7 47-11 79-33l-70-22c-65 3-68 32-73 39zm-389-79c37 45 125 100 164 67 51-45-28 56 15-27l-179-40zm500-1781c49 42 256 93 299 80-39-69 6-34-125-62-75-15-82-25-174-18zm-712 1194c-126 140-191 2-177 237 47 30 143 34 225 22 136-232 53-230-48-259zm396-870l-41 59-9-81c43-2 17-16 50 22zm134-95c6 68-2 51 36 92-32 3-40 9-56 12-103 17-27 11-55-9 78-36 52-10 75-95zm136 61l10-101c-57 14-40 2-67 47-45-78-51-58-139-84-3 3-4 8-10 9-5 1-7 7-9 9-4 2-16 10-21 12-19 7-47 7-68 9-8 52 28-13-19 55-41 61-49 22-83 187-33 159 60 119-73 237l33 134c66-10 27 22 39-39 22 60 1 3 33 35 5-66-25-25 35-70l48-36c3-2 5-6 8-8 41-35 157-57 158-57 78-53 25-62 74-128 107-144 113-126 59-201-2-2-5-7-8-10zm223 743c4 0 25 23-1 16-15-4-12-16 1-16zm327 30c-10 45-12 47-56 27l56-27zm-194-380c-315 19-130 64-300 95-41 7-79 9-117 64s-49 94-16 149c-41 47-58 42-50 115 3 32 23 111 34 136-58 110-32 154 133 118 40 46 47 49 117 47 27 0 50 1 67-13 36-28-20 46 18-31 1-4 3-9 4-13l133-21c10-15 24-28 30-37l74-124c113-22 109-16 130-129 13-70 117-210-59-380-85-81-198 23-198 24z"/>
</svg>
